<?xml version="1.0" encoding="UTF-8" standalone="no"?>
<svg xmlns:ffdec="https://www.free-decompiler.com/flash" xmlns:xlink="http://www.w3.org/1999/xlink" ffdec:objectType="morphshape" height="90.2px" width="11.45px" xmlns="http://www.w3.org/2000/svg">
  <g transform="matrix(1.0, 0.0, 0.0, 1.0, -256.8, -30.85)">
    <path d="M256.85 95.55 Q256.55 99.85 260.1 100.75 263.7 101.6 263.95 96.65 263.25 87.9 263.25 77.95 263.35 58.75 268.2 32.05 268.45 30.75 267.2 30.85 266.05 30.95 264.3 32.2 259.85 35.3 259.0 39.65 258.35 43.05 257.8 65.5 257.2 90.65 256.85 95.55" fill="#ffffff" fill-rule="evenodd" stroke="none">
      <animate attributeName="fill" dur="2s" repeatCount="indefinite" values="#ffffff;#ffffff"/>
      <animate attributeName="fill-opacity" dur="2s" repeatCount="indefinite" values="1.0;1.0"/>
      <animate attributeName="d" dur="2s" repeatCount="indefinite" values="M256.85 95.55 Q256.55 99.85 260.1 100.75 263.7 101.6 263.95 96.65 263.25 87.9 263.25 77.95 263.35 58.75 268.2 32.05 268.45 30.75 267.2 30.85 266.05 30.95 264.3 32.2 259.85 35.3 259.0 39.65 258.35 43.05 257.8 65.5 257.2 90.65 256.85 95.55;M256.8 92.05 Q256.9 114.8 257.45 118.1 257.95 120.9 260.45 121.05 262.95 121.2 263.35 118.65 263.5 108.95 263.65 99.25 264.15 77.5 266.7 56.55 266.9 55.25 265.7 55.35 264.5 55.45 262.8 56.7 258.35 59.8 257.5 64.15 256.65 68.45 256.8 92.05"/>
    </path>
    <path d="M256.85 95.55 Q257.2 90.65 257.8 65.5 258.35 43.05 259.0 39.65 259.85 35.3 264.3 32.2 266.05 30.95 267.2 30.85 268.45 30.75 268.2 32.05 263.35 58.75 263.25 77.95 263.25 87.9 263.95 96.65 263.7 101.6 260.1 100.75 256.55 99.85 256.85 95.55 Z" fill="none" stroke="#000000" stroke-linecap="round" stroke-linejoin="round" stroke-opacity="0.0" stroke-width="0.0">
      <animate attributeName="stroke" dur="2s" repeatCount="indefinite" values="#000000;#000001"/>
      <animate attributeName="stroke-width" dur="2s" repeatCount="indefinite" values="0.0;0.0"/>
      <animate attributeName="fill-opacity" dur="2s" repeatCount="indefinite" values="0.0;0.0"/>
      <animate attributeName="d" dur="2s" repeatCount="indefinite" values="M256.85 95.55 Q257.2 90.65 257.8 65.5 258.35 43.05 259.0 39.65 259.85 35.3 264.3 32.2 266.05 30.95 267.2 30.85 268.45 30.75 268.2 32.05 263.35 58.75 263.25 77.95 263.25 87.9 263.95 96.65 263.7 101.6 260.1 100.75 256.55 99.85 256.85 95.55 Z;M256.8 92.05 Q256.65 68.45 257.5 64.15 258.35 59.8 262.8 56.7 264.5 55.45 265.7 55.35 266.9 55.25 266.7 56.55 264.15 77.5 263.65 99.25 263.5 108.95 263.35 118.65 262.95 121.2 260.45 121.05 257.95 120.9 257.45 118.1 256.9 114.8 256.8 92.05 Z"/>
    </path>
  </g>
</svg>
