<?xml version="1.0" encoding="UTF-8" standalone="no"?>
<svg xmlns:ffdec="https://www.free-decompiler.com/flash" xmlns:xlink="http://www.w3.org/1999/xlink" ffdec:objectType="morphshape" height="65.85px" width="10.9px" xmlns="http://www.w3.org/2000/svg">
  <g transform="matrix(1.0, 0.0, 0.0, 1.0, -256.8, -55.2)">
    <path d="M256.8 92.05 Q256.9 114.8 257.45 118.1 257.95 120.9 260.45 121.05 262.95 121.2 263.35 118.65 L263.65 99.25 Q264.15 77.5 266.7 56.55 266.9 55.25 265.7 55.35 264.5 55.45 262.8 56.7 258.35 59.8 257.5 64.15 256.65 68.45 256.8 92.05" fill="#ffffff" fill-rule="evenodd" stroke="none">
      <animate attributeName="fill" dur="2s" repeatCount="indefinite" values="#ffffff;#ffffff"/>
      <animate attributeName="fill-opacity" dur="2s" repeatCount="indefinite" values="1.0;1.0"/>
      <animate attributeName="d" dur="2s" repeatCount="indefinite" values="M256.8 92.05 Q256.9 114.8 257.45 118.1 257.95 120.9 260.45 121.05 262.95 121.2 263.35 118.65 L263.65 99.25 Q264.15 77.5 266.7 56.55 266.9 55.25 265.7 55.35 264.5 55.45 262.8 56.7 258.35 59.8 257.5 64.15 256.65 68.45 256.8 92.05;M258.25 91.95 Q258.8 114.55 259.4 118.1 259.9 120.9 262.4 120.7 264.9 120.55 265.3 117.95 L265.1 98.8 Q265.1 77.4 267.65 56.4 267.85 55.1 266.65 55.2 265.45 55.3 263.75 56.55 259.3 59.65 258.45 64.0 257.65 68.2 258.25 91.95"/>
    </path>
    <path d="M256.8 92.05 Q256.65 68.45 257.5 64.15 258.35 59.8 262.8 56.7 264.5 55.45 265.7 55.35 266.9 55.25 266.7 56.55 264.15 77.5 263.65 99.25 L263.35 118.65 Q262.95 121.2 260.45 121.05 257.95 120.9 257.45 118.1 256.9 114.8 256.8 92.05 Z" fill="none" stroke="#000000" stroke-linecap="round" stroke-linejoin="round" stroke-opacity="0.0" stroke-width="0.0">
      <animate attributeName="stroke" dur="2s" repeatCount="indefinite" values="#000000;#000001"/>
      <animate attributeName="stroke-width" dur="2s" repeatCount="indefinite" values="0.0;0.0"/>
      <animate attributeName="fill-opacity" dur="2s" repeatCount="indefinite" values="0.0;0.0"/>
      <animate attributeName="d" dur="2s" repeatCount="indefinite" values="M256.8 92.05 Q256.65 68.45 257.5 64.15 258.35 59.8 262.8 56.7 264.5 55.45 265.7 55.35 266.9 55.25 266.7 56.55 264.15 77.5 263.65 99.25 L263.35 118.65 Q262.95 121.2 260.45 121.05 257.95 120.9 257.45 118.1 256.9 114.8 256.8 92.05 Z;M258.25 91.95 Q257.65 68.2 258.45 64.0 259.3 59.65 263.75 56.55 265.45 55.3 266.65 55.2 267.85 55.1 267.65 56.4 265.1 77.4 265.1 98.8 L265.3 117.95 Q264.9 120.55 262.4 120.7 259.9 120.9 259.4 118.1 258.8 114.55 258.25 91.95 Z"/>
    </path>
  </g>
</svg>
