<?xml version="1.0" encoding="UTF-8" standalone="no"?>
<svg xmlns:ffdec="https://www.free-decompiler.com/flash" xmlns:xlink="http://www.w3.org/1999/xlink" ffdec:objectType="morphshape" height="65.6px" width="12.9px" xmlns="http://www.w3.org/2000/svg">
  <g transform="matrix(1.0, 0.0, 0.0, 1.0, -256.8, -55.2)">
    <path d="M258.25 91.95 Q258.8 114.55 259.4 118.1 259.9 120.9 262.4 120.7 264.9 120.55 265.3 117.95 265.2 108.35 265.1 98.8 265.1 77.4 267.65 56.4 267.85 55.1 266.65 55.2 265.45 55.3 263.75 56.55 259.3 59.65 258.45 64.0 257.65 68.2 258.25 91.95" fill="#ffffff" fill-rule="evenodd" stroke="none">
      <animate attributeName="fill" dur="2s" repeatCount="indefinite" values="#ffffff;#ffffff"/>
      <animate attributeName="fill-opacity" dur="2s" repeatCount="indefinite" values="1.0;1.0"/>
      <animate attributeName="d" dur="2s" repeatCount="indefinite" values="M258.25 91.95 Q258.8 114.55 259.4 118.1 259.9 120.9 262.4 120.7 264.9 120.55 265.3 117.95 265.2 108.35 265.1 98.8 265.1 77.4 267.65 56.4 267.85 55.1 266.65 55.2 265.45 55.3 263.75 56.55 259.3 59.65 258.45 64.0 257.65 68.2 258.25 91.95;M257.15 118.1 Q257.65 120.9 260.35 120.8 263.05 120.7 263.45 118.1 263.35 109.95 263.85 99.4 264.9 78.45 269.65 56.4 269.9 55.1 268.75 55.25 267.6 55.35 265.9 56.6 261.45 59.75 260.45 64.0 258.15 73.55 257.25 95.05 256.45 114.0 257.15 118.1"/>
    </path>
    <path d="M258.25 91.95 Q257.65 68.2 258.45 64.0 259.3 59.65 263.75 56.55 265.45 55.3 266.65 55.2 267.85 55.1 267.65 56.4 265.1 77.4 265.1 98.8 265.2 108.35 265.3 117.95 264.9 120.55 262.4 120.7 259.9 120.9 259.4 118.1 258.8 114.55 258.25 91.95 Z" fill="none" stroke="#000000" stroke-linecap="round" stroke-linejoin="round" stroke-opacity="0.0" stroke-width="0.0">
      <animate attributeName="stroke" dur="2s" repeatCount="indefinite" values="#000000;#000001"/>
      <animate attributeName="stroke-width" dur="2s" repeatCount="indefinite" values="0.0;0.0"/>
      <animate attributeName="fill-opacity" dur="2s" repeatCount="indefinite" values="0.0;0.0"/>
      <animate attributeName="d" dur="2s" repeatCount="indefinite" values="M258.25 91.95 Q257.65 68.2 258.45 64.0 259.3 59.65 263.75 56.55 265.45 55.3 266.65 55.2 267.85 55.1 267.65 56.4 265.1 77.4 265.1 98.8 265.2 108.35 265.3 117.95 264.9 120.55 262.4 120.7 259.9 120.9 259.4 118.1 258.8 114.55 258.25 91.95 Z;M257.15 118.1 Q256.45 114.0 257.25 95.05 258.15 73.55 260.45 64.0 261.45 59.75 265.9 56.6 267.6 55.35 268.75 55.25 269.9 55.1 269.65 56.4 264.9 78.45 263.85 99.4 263.35 109.95 263.45 118.1 263.05 120.7 260.35 120.8 257.65 120.9 257.15 118.1 Z"/>
    </path>
  </g>
</svg>
