<?xml version="1.0" encoding="UTF-8" standalone="no"?>
<svg xmlns:ffdec="https://www.free-decompiler.com/flash" xmlns:xlink="http://www.w3.org/1999/xlink" ffdec:objectType="morphshape" height="16.8px" width="22.8px" xmlns="http://www.w3.org/2000/svg">
  <g transform="matrix(1.0, 0.0, 0.0, 1.0, -248.0, -102.9)">
    <path d="M248.05 107.0 L248.4 119.7 250.25 119.7 270.35 119.7 270.35 119.3 270.8 106.1 Q270.05 105.55 268.75 105.2 L268.75 105.2 Q267.0 104.75 265.25 105.15 L263.45 105.75 Q261.15 106.8 258.1 107.2 L253.4 107.45 248.05 107.0" fill="#ffffff" fill-rule="evenodd" stroke="none">
      <animate attributeName="fill" dur="2s" repeatCount="indefinite" values="#ffffff;#ffffff"/>
      <animate attributeName="fill-opacity" dur="2s" repeatCount="indefinite" values="1.0;1.0"/>
      <animate attributeName="d" dur="2s" repeatCount="indefinite" values="M248.05 107.0 L248.4 119.7 250.25 119.7 270.35 119.7 270.35 119.3 270.8 106.1 Q270.05 105.55 268.75 105.2 L268.75 105.2 Q267.0 104.75 265.25 105.15 L263.45 105.75 Q261.15 106.8 258.1 107.2 L253.4 107.45 248.05 107.0;M248.0 104.15 L248.3 117.7 248.4 119.7 269.9 119.7 270.35 119.7 270.7 105.6 Q270.75 104.25 270.8 102.9 L270.8 102.9 Q268.9 103.15 267.05 103.4 L265.0 103.5 Q261.9 103.7 258.8 103.85 L253.7 103.95 248.0 104.15"/>
    </path>
    <path d="M248.05 107.0 L253.4 107.45 258.1 107.2 Q261.15 106.8 263.45 105.75 L265.25 105.15 Q267.0 104.75 268.75 105.2 L268.75 105.2 Q270.05 105.55 270.8 106.1 L270.35 119.3 270.35 119.7 250.25 119.7 248.4 119.7 248.05 107.0 Z" fill="none" stroke="#000000" stroke-linecap="round" stroke-linejoin="round" stroke-opacity="0.0" stroke-width="0.0">
      <animate attributeName="stroke" dur="2s" repeatCount="indefinite" values="#000000;#000001"/>
      <animate attributeName="stroke-width" dur="2s" repeatCount="indefinite" values="0.0;0.0"/>
      <animate attributeName="fill-opacity" dur="2s" repeatCount="indefinite" values="0.0;0.0"/>
      <animate attributeName="d" dur="2s" repeatCount="indefinite" values="M248.05 107.0 L253.4 107.45 258.1 107.2 Q261.15 106.8 263.45 105.75 L265.25 105.15 Q267.0 104.75 268.75 105.2 L268.75 105.2 Q270.05 105.55 270.8 106.1 L270.35 119.3 270.35 119.7 250.25 119.7 248.4 119.7 248.05 107.0 Z;M248.0 104.15 L253.7 103.95 258.8 103.85 Q261.9 103.7 265.0 103.5 L267.05 103.4 Q268.9 103.15 270.8 102.9 L270.8 102.9 Q270.75 104.25 270.7 105.6 L270.35 119.7 269.9 119.7 248.4 119.7 248.3 117.7 248.0 104.15 Z"/>
    </path>
  </g>
</svg>
