<?xml version="1.0" encoding="UTF-8" standalone="no"?>
<svg xmlns:ffdec="https://www.free-decompiler.com/flash" xmlns:xlink="http://www.w3.org/1999/xlink" ffdec:objectType="morphshape" height="22.25px" width="22.8px" xmlns="http://www.w3.org/2000/svg">
  <g transform="matrix(1.0, 0.0, 0.0, 1.0, -248.0, -97.45)">
    <path d="M248.0 104.15 L248.0 104.2 248.4 119.7 252.1 119.7 270.35 119.7 270.35 118.4 270.8 102.9 267.7 103.4 267.05 103.4 262.35 103.6 258.8 103.85 Q256.15 103.95 253.5 104.05 251.3 104.1 249.1 104.15 L248.0 104.15" fill="#ffffff" fill-rule="evenodd" stroke="none">
      <animate attributeName="fill" dur="2s" repeatCount="indefinite" values="#ffffff;#ffffff"/>
      <animate attributeName="fill-opacity" dur="2s" repeatCount="indefinite" values="1.0;1.0"/>
      <animate attributeName="d" dur="2s" repeatCount="indefinite" values="M248.0 104.15 L248.0 104.2 248.4 119.7 252.1 119.7 270.35 119.7 270.35 118.4 270.8 102.9 267.7 103.4 267.05 103.4 262.35 103.6 258.8 103.85 Q256.15 103.95 253.5 104.05 251.3 104.1 249.1 104.15 L248.0 104.15;M248.35 98.2 L248.35 98.2 248.4 115.5 248.4 119.7 268.85 119.7 270.35 119.7 270.35 102.4 270.35 98.8 269.65 98.9 264.3 99.4 260.35 99.4 Q256.5 99.25 254.25 98.35 251.1 97.1 249.4 97.55 L248.35 98.2"/>
    </path>
    <path d="M248.0 104.15 L249.1 104.15 Q251.3 104.1 253.5 104.05 256.15 103.95 258.8 103.85 L262.35 103.6 267.05 103.4 267.7 103.4 270.8 102.9 270.35 118.4 270.35 119.7 252.1 119.7 248.4 119.7 248.0 104.2 248.0 104.15 Z" fill="none" stroke="#000000" stroke-linecap="round" stroke-linejoin="round" stroke-opacity="0.0" stroke-width="0.0">
      <animate attributeName="stroke" dur="2s" repeatCount="indefinite" values="#000000;#000001"/>
      <animate attributeName="stroke-width" dur="2s" repeatCount="indefinite" values="0.0;0.0"/>
      <animate attributeName="fill-opacity" dur="2s" repeatCount="indefinite" values="0.0;0.0"/>
      <animate attributeName="d" dur="2s" repeatCount="indefinite" values="M248.0 104.15 L249.1 104.15 Q251.3 104.1 253.5 104.05 256.15 103.95 258.8 103.85 L262.35 103.6 267.05 103.4 267.7 103.4 270.8 102.9 270.35 118.4 270.35 119.7 252.1 119.7 248.4 119.7 248.0 104.2 248.0 104.15 Z;M248.35 98.2 L249.4 97.55 Q251.1 97.1 254.25 98.35 256.5 99.25 260.35 99.4 L264.3 99.4 269.65 98.9 270.35 98.8 270.35 102.4 270.35 119.7 268.85 119.7 248.4 119.7 248.4 115.5 248.35 98.2 248.35 98.2 Z"/>
    </path>
  </g>
</svg>
