<?xml version="1.0" encoding="UTF-8" standalone="no"?>
<svg xmlns:ffdec="https://www.free-decompiler.com/flash" xmlns:xlink="http://www.w3.org/1999/xlink" ffdec:objectType="morphshape" height="69.15px" width="15.9px" xmlns="http://www.w3.org/2000/svg">
  <g transform="matrix(1.0, 0.0, 0.0, 1.0, -254.5, -51.65)">
    <path d="M257.15 118.1 Q257.65 120.9 260.35 120.8 263.05 120.7 263.45 118.1 263.35 109.95 263.85 99.4 264.9 78.45 269.65 56.4 269.9 55.1 268.75 55.25 267.6 55.35 265.9 56.6 261.45 59.75 260.45 64.0 258.15 73.55 257.25 95.05 256.45 114.0 257.15 118.1" fill="#ffffff" fill-rule="evenodd" stroke="none">
      <animate attributeName="fill" dur="2s" repeatCount="indefinite" values="#ffffff;#ffffff"/>
      <animate attributeName="fill-opacity" dur="2s" repeatCount="indefinite" values="1.0;1.0"/>
      <animate attributeName="d" dur="2s" repeatCount="indefinite" values="M257.15 118.1 Q257.65 120.9 260.35 120.8 263.05 120.7 263.45 118.1 263.35 109.95 263.85 99.4 264.9 78.45 269.65 56.4 269.9 55.1 268.75 55.25 267.6 55.35 265.9 56.6 261.45 59.75 260.45 64.0 258.15 73.55 257.25 95.05 256.45 114.0 257.15 118.1;M254.65 118.1 Q255.15 120.9 257.1 120.8 259.0 120.7 259.4 118.1 263.2 92.7 269.9 60.55 271.0 55.3 269.7 53.0 268.5 51.0 266.0 51.95 263.5 52.9 261.4 56.05 259.05 59.55 258.45 64.0 257.0 75.0 255.6 95.15 254.15 115.25 254.65 118.1"/>
    </path>
    <path d="M257.15 118.1 Q256.45 114.0 257.25 95.05 258.15 73.55 260.45 64.0 261.45 59.75 265.9 56.6 267.6 55.35 268.75 55.25 269.9 55.1 269.65 56.4 264.9 78.45 263.85 99.4 263.35 109.95 263.45 118.1 263.05 120.7 260.35 120.8 257.65 120.9 257.15 118.1 Z" fill="none" stroke="#000000" stroke-linecap="round" stroke-linejoin="round" stroke-opacity="0.0" stroke-width="0.0">
      <animate attributeName="stroke" dur="2s" repeatCount="indefinite" values="#000000;#000001"/>
      <animate attributeName="stroke-width" dur="2s" repeatCount="indefinite" values="0.0;0.0"/>
      <animate attributeName="fill-opacity" dur="2s" repeatCount="indefinite" values="0.0;0.0"/>
      <animate attributeName="d" dur="2s" repeatCount="indefinite" values="M257.15 118.1 Q256.45 114.0 257.25 95.05 258.15 73.55 260.45 64.0 261.45 59.75 265.9 56.6 267.6 55.35 268.75 55.25 269.9 55.1 269.65 56.4 264.9 78.45 263.85 99.4 263.35 109.95 263.45 118.1 263.05 120.7 260.35 120.8 257.65 120.9 257.15 118.1 Z;M254.65 118.1 Q254.15 115.25 255.6 95.15 257.0 75.0 258.45 64.0 259.05 59.55 261.4 56.05 263.5 52.9 266.0 51.95 268.5 51.0 269.7 53.0 271.0 55.3 269.9 60.55 263.2 92.7 259.4 118.1 259.0 120.7 257.1 120.8 255.15 120.9 254.65 118.1 Z"/>
    </path>
  </g>
</svg>
