<?xml version="1.0" encoding="UTF-8" standalone="no"?>
<svg xmlns:ffdec="https://www.free-decompiler.com/flash" xmlns:xlink="http://www.w3.org/1999/xlink" ffdec:objectType="morphshape" height="23.6px" width="22.0px" xmlns="http://www.w3.org/2000/svg">
  <g transform="matrix(1.0, 0.0, 0.0, 1.0, -248.35, -96.1)">
    <path d="M248.35 98.2 L248.4 119.7 249.05 119.7 269.95 119.7 270.35 119.7 270.35 98.8 269.45 98.95 264.3 99.4 Q261.05 99.55 258.6 99.3 256.0 99.05 254.25 98.35 L251.5 97.55 Q250.25 97.35 249.4 97.55 L248.35 98.2" fill="#ffffff" fill-rule="evenodd" stroke="none">
      <animate attributeName="fill" dur="2s" repeatCount="indefinite" values="#ffffff;#ffffff"/>
      <animate attributeName="fill-opacity" dur="2s" repeatCount="indefinite" values="1.0;1.0"/>
      <animate attributeName="d" dur="2s" repeatCount="indefinite" values="M248.35 98.2 L248.4 119.7 249.05 119.7 269.95 119.7 270.35 119.7 270.35 98.8 269.45 98.95 264.3 99.4 Q261.05 99.55 258.6 99.3 256.0 99.05 254.25 98.35 L251.5 97.55 Q250.25 97.35 249.4 97.55 L248.35 98.2;M248.4 96.4 L248.4 119.0 248.4 119.7 270.35 119.7 270.35 119.2 270.35 97.3 270.35 96.4 265.1 96.1 Q262.2 96.25 259.35 96.4 257.15 96.55 254.95 96.65 L251.85 96.6 Q250.75 96.55 249.7 96.5 L248.4 96.4"/>
    </path>
    <path d="M248.35 98.2 L249.4 97.55 Q250.25 97.35 251.5 97.55 L254.25 98.35 Q256.0 99.05 258.6 99.3 261.05 99.55 264.3 99.4 L269.45 98.95 270.35 98.8 270.35 119.7 269.95 119.7 249.05 119.7 248.4 119.7 248.35 98.2 Z" fill="none" stroke="#000000" stroke-linecap="round" stroke-linejoin="round" stroke-opacity="0.0" stroke-width="0.0">
      <animate attributeName="stroke" dur="2s" repeatCount="indefinite" values="#000000;#000001"/>
      <animate attributeName="stroke-width" dur="2s" repeatCount="indefinite" values="0.0;0.0"/>
      <animate attributeName="fill-opacity" dur="2s" repeatCount="indefinite" values="0.0;0.0"/>
      <animate attributeName="d" dur="2s" repeatCount="indefinite" values="M248.35 98.2 L249.4 97.55 Q250.25 97.35 251.5 97.55 L254.25 98.35 Q256.0 99.05 258.6 99.3 261.05 99.55 264.3 99.4 L269.45 98.95 270.35 98.8 270.35 119.7 269.95 119.7 249.05 119.7 248.4 119.7 248.35 98.2 Z;M248.4 96.4 L249.7 96.5 Q250.75 96.55 251.85 96.6 L254.95 96.65 Q257.15 96.55 259.35 96.4 262.2 96.25 265.1 96.1 L270.35 96.4 270.35 97.3 270.35 119.2 270.35 119.7 248.4 119.7 248.4 119.0 248.4 96.4 Z"/>
    </path>
  </g>
</svg>
