<?xml version="1.0" encoding="UTF-8" standalone="no"?>
<svg xmlns:ffdec="https://www.free-decompiler.com/flash" xmlns:xlink="http://www.w3.org/1999/xlink" ffdec:objectType="morphshape" height="69.15px" width="19.6px" xmlns="http://www.w3.org/2000/svg">
  <g transform="matrix(1.0, 0.0, 0.0, 1.0, -250.8, -51.65)">
    <path d="M254.65 118.1 L254.65 118.1 Q255.15 120.9 257.1 120.8 259.0 120.7 259.4 118.1 L260.85 108.8 Q262.25 100.6 263.65 92.4 L265.8 80.85 Q267.85 70.7 269.9 60.55 L270.4 56.95 Q270.5 54.4 269.7 53.0 268.5 51.0 266.0 51.95 264.9 52.35 263.9 53.2 262.6 54.3 261.4 56.05 260.15 57.9 259.4 60.0 258.75 61.9 258.45 64.0 258.2 66.0 257.95 67.95 257.45 72.85 257.0 77.7 256.3 86.45 255.6 95.15 L255.0 103.75 Q254.25 115.95 254.65 118.1" fill="#ffffff" fill-rule="evenodd" stroke="none">
      <animate attributeName="fill" dur="2s" repeatCount="indefinite" values="#ffffff;#ffffff"/>
      <animate attributeName="fill-opacity" dur="2s" repeatCount="indefinite" values="1.0;1.0"/>
      <animate attributeName="d" dur="2s" repeatCount="indefinite" values="M254.65 118.1 L254.65 118.1 Q255.15 120.9 257.1 120.8 259.0 120.7 259.4 118.1 L260.85 108.8 Q262.25 100.6 263.65 92.4 L265.8 80.85 Q267.85 70.7 269.9 60.55 L270.4 56.95 Q270.5 54.4 269.7 53.0 268.5 51.0 266.0 51.95 264.9 52.35 263.9 53.2 262.6 54.3 261.4 56.05 260.15 57.9 259.4 60.0 258.75 61.9 258.45 64.0 258.2 66.0 257.95 67.95 257.45 72.85 257.0 77.7 256.3 86.45 255.6 95.15 L255.0 103.75 Q254.25 115.95 254.65 118.1;M250.8 118.1 L250.85 118.3 Q251.05 119.05 251.55 119.55 252.1 120.05 253.0 120.35 L256.8 120.8 Q262.25 120.65 262.65 118.1 L263.65 113.15 Q264.3 109.8 264.8 104.65 L264.9 103.25 Q264.9 102.4 264.9 101.6 264.6 100.7 264.35 99.85 264.05 99.45 263.8 99.05 263.15 98.55 262.55 98.1 261.75 97.7 260.7 97.75 259.75 97.75 258.95 98.1 258.15 98.4 257.5 99.05 255.95 100.45 255.9 102.65 255.75 106.65 254.5 109.9 L252.95 112.95 Q250.55 116.7 250.8 118.1"/>
    </path>
    <path d="M254.65 118.1 Q254.25 115.95 255.0 103.75 L255.6 95.15 Q256.3 86.45 257.0 77.7 257.45 72.85 257.95 67.95 258.2 66.0 258.45 64.0 258.75 61.9 259.4 60.0 260.15 57.9 261.4 56.05 262.6 54.3 263.9 53.2 264.9 52.35 266.0 51.95 268.5 51.0 269.7 53.0 270.5 54.4 270.4 56.95 L269.9 60.55 Q267.85 70.7 265.8 80.85 L263.65 92.4 Q262.25 100.6 260.85 108.8 L259.4 118.1 Q259.0 120.7 257.1 120.8 255.15 120.9 254.65 118.1 L254.65 118.1 Z" fill="none" stroke="#000000" stroke-linecap="round" stroke-linejoin="round" stroke-opacity="0.0" stroke-width="0.0">
      <animate attributeName="stroke" dur="2s" repeatCount="indefinite" values="#000000;#000001"/>
      <animate attributeName="stroke-width" dur="2s" repeatCount="indefinite" values="0.0;0.0"/>
      <animate attributeName="fill-opacity" dur="2s" repeatCount="indefinite" values="0.0;0.0"/>
      <animate attributeName="d" dur="2s" repeatCount="indefinite" values="M254.65 118.1 Q254.25 115.95 255.0 103.75 L255.6 95.15 Q256.3 86.45 257.0 77.7 257.45 72.85 257.95 67.95 258.2 66.0 258.45 64.0 258.75 61.9 259.4 60.0 260.15 57.9 261.4 56.05 262.6 54.3 263.9 53.2 264.9 52.35 266.0 51.95 268.5 51.0 269.7 53.0 270.5 54.4 270.4 56.95 L269.9 60.55 Q267.85 70.7 265.8 80.85 L263.65 92.4 Q262.25 100.6 260.85 108.8 L259.4 118.1 Q259.0 120.7 257.1 120.8 255.15 120.9 254.65 118.1 L254.65 118.1 Z;M250.8 118.1 Q250.55 116.7 252.95 112.95 L254.5 109.9 Q255.75 106.65 255.9 102.65 255.95 100.45 257.5 99.05 258.15 98.4 258.95 98.1 259.75 97.75 260.7 97.75 261.75 97.7 262.55 98.1 263.15 98.55 263.8 99.05 264.05 99.45 264.35 99.85 264.6 100.7 264.9 101.6 264.9 102.4 264.9 103.25 L264.8 104.65 Q264.3 109.8 263.65 113.15 L262.65 118.1 Q262.25 120.65 256.8 120.8 L253.0 120.35 Q252.1 120.05 251.55 119.55 251.05 119.05 250.85 118.3 L250.8 118.1 Z"/>
    </path>
  </g>
</svg>
