<?xml version="1.0" encoding="UTF-8" standalone="no"?>
<svg xmlns:ffdec="https://www.free-decompiler.com/flash" xmlns:xlink="http://www.w3.org/1999/xlink" ffdec:objectType="morphshape" height="24.1px" width="21.95px" xmlns="http://www.w3.org/2000/svg">
  <g transform="matrix(1.0, 0.0, 0.0, 1.0, -248.4, -95.6)">
    <path d="M248.4 96.4 L248.4 96.4 248.4 119.5 248.4 119.7 270.15 119.7 270.35 119.7 270.35 96.6 270.35 96.4 267.55 96.15 Q263.6 96.3 259.65 96.4 L259.35 96.4 Q255.7 96.5 252.05 96.6 L251.85 96.6 248.4 96.4" fill="#ffffff" fill-rule="evenodd" stroke="none">
      <animate attributeName="fill" dur="2s" repeatCount="indefinite" values="#ffffff;#ffffff"/>
      <animate attributeName="fill-opacity" dur="2s" repeatCount="indefinite" values="1.0;1.0"/>
      <animate attributeName="d" dur="2s" repeatCount="indefinite" values="M248.4 96.4 L248.4 96.4 248.4 119.5 248.4 119.7 270.15 119.7 270.35 119.7 270.35 96.6 270.35 96.4 267.55 96.15 Q263.6 96.3 259.65 96.4 L259.35 96.4 Q255.7 96.5 252.05 96.6 L251.85 96.6 248.4 96.4;M248.4 96.4 L248.4 96.5 248.4 119.7 248.55 119.7 270.35 119.7 270.35 119.5 270.35 96.4 270.15 96.5 267.35 97.25 Q263.5 97.85 259.35 96.4 L259.15 96.3 Q256.0 95.3 251.95 95.75 L251.8 95.75 248.4 96.4"/>
    </path>
    <path d="M248.4 96.4 L251.85 96.6 252.05 96.6 Q255.7 96.5 259.35 96.4 L259.65 96.4 Q263.6 96.3 267.55 96.15 L270.35 96.4 270.35 96.6 270.35 119.7 270.15 119.7 248.4 119.7 248.4 119.5 248.4 96.4 248.4 96.4 Z" fill="none" stroke="#000000" stroke-linecap="round" stroke-linejoin="round" stroke-opacity="0.0" stroke-width="0.0">
      <animate attributeName="stroke" dur="2s" repeatCount="indefinite" values="#000000;#000001"/>
      <animate attributeName="stroke-width" dur="2s" repeatCount="indefinite" values="0.0;0.0"/>
      <animate attributeName="fill-opacity" dur="2s" repeatCount="indefinite" values="0.0;0.0"/>
      <animate attributeName="d" dur="2s" repeatCount="indefinite" values="M248.4 96.4 L251.85 96.6 252.05 96.6 Q255.7 96.5 259.35 96.4 L259.65 96.4 Q263.6 96.3 267.55 96.15 L270.35 96.4 270.35 96.6 270.35 119.7 270.15 119.7 248.4 119.7 248.4 119.5 248.4 96.4 248.4 96.4 Z;M248.4 96.4 L251.8 95.75 251.95 95.75 Q256.0 95.3 259.15 96.3 L259.35 96.4 Q263.5 97.85 267.35 97.25 L270.15 96.5 270.35 96.4 270.35 119.5 270.35 119.7 248.55 119.7 248.4 119.7 248.4 96.5 248.4 96.4 Z"/>
    </path>
  </g>
</svg>
