<?xml version="1.0" encoding="UTF-8" standalone="no"?>
<svg xmlns:ffdec="https://www.free-decompiler.com/flash" xmlns:xlink="http://www.w3.org/1999/xlink" ffdec:objectType="morphshape" height="47.95px" width="6.05px" xmlns="http://www.w3.org/2000/svg">
  <g transform="matrix(1.0, 0.0, 0.0, 1.0, -262.0, -59.6)">
    <path d="M262.0 63.6 Q262.0 65.25 262.9 66.4 263.75 67.6 265.1 67.6 266.3 67.6 267.2 66.4 268.05 65.25 268.05 63.6 268.05 61.95 267.2 60.75 266.3 59.6 265.1 59.6 263.75 59.6 262.9 60.75 262.0 61.95 262.0 63.6" fill="#ffffff" fill-rule="evenodd" stroke="none">
      <animate attributeName="fill" dur="2s" repeatCount="indefinite" values="#ffffff;#ffffff"/>
      <animate attributeName="fill-opacity" dur="2s" repeatCount="indefinite" values="1.0;1.0"/>
      <animate attributeName="d" dur="2s" repeatCount="indefinite" values="M262.0 63.6 Q262.0 65.25 262.9 66.4 263.75 67.6 265.1 67.6 266.3 67.6 267.2 66.4 268.05 65.25 268.05 63.6 268.05 61.95 267.2 60.75 266.3 59.6 265.1 59.6 263.75 59.6 262.9 60.75 262.0 61.95 262.0 63.6;M262.9 103.4 Q262.9 105.1 263.55 106.35 264.15 107.55 265.05 107.55 266.0 107.55 266.6 106.35 267.25 105.1 267.25 103.4 267.25 101.75 266.6 100.5 266.0 99.3 265.05 99.3 264.15 99.3 263.55 100.5 262.9 101.75 262.9 103.4"/>
    </path>
    <path d="M262.0 63.6 Q262.0 61.95 262.9 60.75 263.75 59.6 265.1 59.6 266.3 59.6 267.2 60.75 268.05 61.95 268.05 63.6 268.05 65.25 267.2 66.4 266.3 67.6 265.1 67.6 263.75 67.6 262.9 66.4 262.0 65.25 262.0 63.6 Z" fill="none" stroke="#000000" stroke-linecap="round" stroke-linejoin="round" stroke-opacity="0.0" stroke-width="0.0">
      <animate attributeName="stroke" dur="2s" repeatCount="indefinite" values="#000000;#000001"/>
      <animate attributeName="stroke-width" dur="2s" repeatCount="indefinite" values="0.0;0.0"/>
      <animate attributeName="fill-opacity" dur="2s" repeatCount="indefinite" values="0.0;0.0"/>
      <animate attributeName="d" dur="2s" repeatCount="indefinite" values="M262.0 63.6 Q262.0 61.95 262.9 60.75 263.75 59.6 265.1 59.6 266.3 59.6 267.2 60.75 268.05 61.95 268.05 63.6 268.05 65.25 267.2 66.4 266.3 67.6 265.1 67.6 263.75 67.6 262.9 66.4 262.0 65.25 262.0 63.6 Z;M262.9 103.4 Q262.9 101.75 263.55 100.5 264.15 99.3 265.05 99.3 266.0 99.3 266.6 100.5 267.25 101.75 267.25 103.4 267.25 105.1 266.6 106.35 266.0 107.55 265.05 107.55 264.15 107.55 263.55 106.35 262.9 105.1 262.9 103.4 Z"/>
    </path>
  </g>
</svg>
