<?xml version="1.0" encoding="UTF-8" standalone="no"?>
<svg xmlns:ffdec="https://www.free-decompiler.com/flash" xmlns:xlink="http://www.w3.org/1999/xlink" ffdec:objectType="shape" height="43.45px" width="38.5px" xmlns="http://www.w3.org/2000/svg">
  <g transform="matrix(1.0, 0.0, 0.0, 1.0, -158.55, -92.55)">
    <path d="M195.15 92.55 Q197.05 92.55 197.05 94.45 L197.05 134.1 Q197.05 136.0 195.15 136.0 L185.6 136.0 Q183.7 136.0 183.7 134.1 L183.7 117.0 171.7 135.05 Q171.1 136.0 170.05 136.0 L160.5 136.0 Q158.55 136.0 158.55 134.1 L158.55 94.45 Q158.55 92.55 160.5 92.55 L170.05 92.55 Q171.95 92.55 171.95 94.45 L171.95 111.55 184.25 93.1 Q184.65 92.55 185.6 92.55 L195.15 92.55" fill="#ffffff" fill-rule="evenodd" stroke="none"/>
  </g>
</svg>
