<?xml version="1.0" encoding="UTF-8" standalone="no"?>
<svg xmlns:ffdec="https://www.free-decompiler.com/flash" xmlns:xlink="http://www.w3.org/1999/xlink" ffdec:objectType="shape" height="257.6px" width="89.5px" xmlns="http://www.w3.org/2000/svg">
  <g transform="matrix(1.0, 0.0, 0.0, 1.0, 44.75, 128.8)">
    <path d="M-4.3 -127.45 L2.05 -114.7 Q3.05 -112.45 1.0 -111.45 L0.0 -111.0 -1.05 -111.0 44.7 125.9 Q45.1 128.35 42.65 128.8 L-42.25 128.8 Q-44.75 128.8 -44.75 126.3 L-44.75 125.9 -11.1 -111.0 -12.95 -111.0 Q-13.75 -111.0 -14.6 -111.85 -15.4 -112.45 -15.4 -113.5 L-15.0 -114.9 -8.65 -127.45 Q-7.6 -129.5 -5.35 -128.45 L-4.3 -127.45 M-6.6 -126.4 L-12.95 -113.7 -13.15 -113.5 -12.95 -113.25 -8.4 -113.25 -42.45 126.3 -42.25 126.55 42.25 126.55 42.45 126.3 -3.9 -113.25 0.0 -113.25 0.0 -113.7 -6.35 -126.4 Q-6.6 -126.6 -6.6 -126.4" fill="url(#gradient0)" fill-rule="evenodd" stroke="none"/>
    <path d="M-6.6 -126.4 Q-6.6 -126.6 -6.35 -126.4 L0.0 -113.7 0.0 -113.25 -3.9 -113.25 42.45 126.3 42.25 126.55 -42.25 126.55 -42.45 126.3 -8.4 -113.25 -12.95 -113.25 -13.15 -113.5 -12.95 -113.7 -6.6 -126.4" fill="url(#gradient1)" fill-rule="evenodd" stroke="none"/>
  </g>
  <defs>
    <linearGradient gradientTransform="matrix(-0.0605, -0.0706, 0.119, -0.102, 10.25, 30.4)" gradientUnits="userSpaceOnUse" id="gradient0" spreadMethod="pad" x1="-819.2" x2="819.2">
      <stop offset="0.0" stop-color="#ff812f" stop-opacity="0.0"/>
      <stop offset="1.0" stop-color="#ff6500"/>
    </linearGradient>
    <linearGradient gradientTransform="matrix(-0.0022, -0.1539, 0.1544, -0.0022, -0.05, 0.05)" gradientUnits="userSpaceOnUse" id="gradient1" spreadMethod="pad" x1="-819.2" x2="819.2">
      <stop offset="0.0" stop-color="#ffffff" stop-opacity="0.0"/>
      <stop offset="1.0" stop-color="#ffffff"/>
    </linearGradient>
  </defs>
</svg>
