<?xml version="1.0" encoding="UTF-8" standalone="no"?>
<svg xmlns:ffdec="https://www.free-decompiler.com/flash" xmlns:xlink="http://www.w3.org/1999/xlink" ffdec:objectType="shape" height="123.55px" width="134.15px" xmlns="http://www.w3.org/2000/svg">
  <g transform="matrix(1.0, 0.0, 0.0, 1.0, 50.2, 61.75)">
    <path d="M47.75 -28.45 L47.95 -28.25 Q112.05 19.35 47.95 59.35 L47.75 59.55 47.55 59.55 -39.0 -49.2 -41.05 -46.5 -41.25 -46.3 -47.85 -59.25 -47.6 -59.45 -33.45 -57.0 -33.25 -56.8 -34.7 -54.3 47.75 -28.45" fill="url(#gradient0)" fill-rule="evenodd" stroke="none"/>
    <path d="M47.75 -28.45 L-34.7 -54.3 -33.25 -56.8 -33.45 -57.0 -47.6 -59.45 -47.85 -59.25 -41.25 -46.3 -41.05 -46.5 -39.0 -49.2 47.55 59.55 47.75 59.55 47.95 59.35 Q112.05 19.35 47.95 -28.25 L47.75 -28.45 M50.2 -28.05 Q117.7 14.0 50.2 59.35 50.2 61.8 47.75 61.8 46.95 61.8 45.7 60.95 L-38.8 -45.5 -39.2 -45.1 Q-40.65 -43.25 -42.7 -44.7 L-43.3 -45.5 -49.9 -58.2 Q-50.9 -60.25 -48.65 -61.5 L-47.2 -61.7 -33.05 -59.25 Q-30.6 -58.85 -31.0 -56.35 L-31.4 -55.55 48.4 -30.5 Q50.2 -30.1 50.2 -28.05" fill="url(#gradient1)" fill-rule="evenodd" stroke="none"/>
  </g>
  <defs>
    <linearGradient gradientTransform="matrix(0.0789, 0.043, -0.0347, 0.0637, 0.05, 0.05)" gradientUnits="userSpaceOnUse" id="gradient0" spreadMethod="pad" x1="-819.2" x2="819.2">
      <stop offset="0.0" stop-color="#ffffff"/>
      <stop offset="1.0" stop-color="#ffffff" stop-opacity="0.0"/>
    </linearGradient>
    <linearGradient gradientTransform="matrix(-0.1046, -0.0762, 0.0923, -0.1266, -33.15, 128.8)" gradientUnits="userSpaceOnUse" id="gradient1" spreadMethod="pad" x1="-819.2" x2="819.2">
      <stop offset="0.10196078431372549" stop-color="#ff812f" stop-opacity="0.0"/>
      <stop offset="1.0" stop-color="#ff6500"/>
    </linearGradient>
  </defs>
</svg>
