<?xml version="1.0" encoding="UTF-8" standalone="no"?>
<svg xmlns:ffdec="https://www.free-decompiler.com/flash" xmlns:xlink="http://www.w3.org/1999/xlink" ffdec:objectType="shape" height="247.05px" width="134.9px" xmlns="http://www.w3.org/2000/svg">
  <g transform="matrix(1.0, 0.0, 0.0, 1.0, 67.45, 123.5)">
    <path d="M-10.65 121.05 Q-10.65 123.55 -13.1 123.55 -15.35 123.55 -15.35 121.5 L-63.55 -104.8 -63.95 -104.6 Q-66.0 -103.55 -67.25 -105.8 L-67.45 -107.05 -67.05 -121.2 Q-66.65 -123.85 -64.35 -123.45 L-62.95 -123.05 -51.85 -114.0 Q-49.8 -112.4 -51.45 -110.55 L-52.25 -109.7 -52.7 -109.7 66.7 45.15 Q68.35 47.2 66.3 48.65 L65.0 49.0 65.05 46.6 -56.15 -110.55 -53.3 -111.95 Q-53.1 -111.95 -53.3 -112.15 L-64.35 -121.2 -64.6 -121.2 -64.8 -121.0 -65.2 -106.65 -65.0 -106.65 -61.9 -107.85 -13.3 121.05 -13.1 121.05 -13.1 121.25 -12.9 121.05 -10.65 121.05" fill="url(#gradient0)" fill-rule="evenodd" stroke="none"/>
    <path d="M65.0 49.0 L64.85 49.05 -10.65 49.05 -10.65 121.05 -12.9 121.05 -13.1 121.25 -13.1 121.05 -13.3 121.05 -61.9 -107.85 -65.0 -106.65 -65.2 -106.65 -64.8 -121.0 -64.6 -121.2 -64.35 -121.2 -53.3 -112.15 Q-53.1 -111.95 -53.3 -111.95 L-56.15 -110.55 65.05 46.6 65.0 49.0" fill="url(#gradient1)" fill-rule="evenodd" stroke="none"/>
  </g>
  <defs>
    <linearGradient gradientTransform="matrix(-0.0605, -0.0706, 0.119, -0.102, -61.7, 39.3)" gradientUnits="userSpaceOnUse" id="gradient0" spreadMethod="pad" x1="-819.2" x2="819.2">
      <stop offset="0.0" stop-color="#ff812f" stop-opacity="0.0"/>
      <stop offset="1.0" stop-color="#ff6500"/>
    </linearGradient>
    <linearGradient gradientTransform="matrix(-0.0744, -0.1504, 0.1324, -0.0656, -0.4, -0.4)" gradientUnits="userSpaceOnUse" id="gradient1" spreadMethod="pad" x1="-819.2" x2="819.2">
      <stop offset="0.0" stop-color="#ffffff" stop-opacity="0.0"/>
      <stop offset="1.0" stop-color="#ffffff"/>
    </linearGradient>
  </defs>
</svg>
