<?xml version="1.0" encoding="UTF-8" standalone="no"?>
<svg xmlns:ffdec="https://www.free-decompiler.com/flash" xmlns:xlink="http://www.w3.org/1999/xlink" ffdec:objectType="shape" height="55.9px" width="49.1px" xmlns="http://www.w3.org/2000/svg">
  <g transform="matrix(1.0, 0.0, 0.0, 1.0, 24.55, 27.95)">
    <path d="M-10.7 -27.95 L-9.3 -27.95 Q-7.1 -27.95 -5.7 -26.35 -4.1 -24.75 -3.7 -22.95 L-3.5 -22.75 -0.1 -21.75 0.1 -21.75 Q3.55 -20.15 4.95 -19.15 L5.55 -18.55 Q7.15 -16.5 5.95 -11.7 L5.95 -11.5 5.35 -8.3 Q6.95 -8.7 8.15 -7.7 8.75 -9.1 10.35 -9.5 L13.95 -10.5 Q15.35 -10.9 16.55 -10.1 17.75 -9.5 17.95 -8.1 L20.8 1.75 Q22.6 2.35 22.8 4.15 L24.4 10.35 24.4 10.55 Q25.2 13.95 22.0 14.55 L19.4 15.35 Q16.15 16.2 15.35 13.15 L15.15 12.55 13.55 12.95 16.75 18.2 17.15 19.0 Q17.95 22.2 14.75 23.2 L9.95 24.4 Q7.55 25.2 6.15 22.8 L4.95 20.8 4.15 20.8 4.15 23.2 Q4.15 26.0 1.75 26.6 L-2.9 27.8 Q-4.3 28.2 -5.5 27.4 -6.7 26.6 -7.1 25.2 L-13.1 26.8 Q-16.75 27.2 -17.35 24.4 L-22.35 6.15 Q-22.95 2.95 -19.95 1.95 L-13.1 0.15 Q-17.15 -1.5 -18.55 -3.1 L-19.35 -4.5 -19.35 -4.7 -19.55 -5.7 -22.95 -8.1 -22.95 -8.3 Q-24.75 -10.1 -24.55 -12.3 L-24.35 -13.7 Q-24.15 -15.1 -22.75 -16.1 L-22.95 -16.9 -22.95 -17.75 Q-22.95 -18.95 -21.95 -20.55 -20.95 -21.75 -19.35 -22.15 L-18.15 -24.15 Q-16.35 -25.95 -14.5 -25.95 L-13.5 -25.95 -13.3 -26.15 -13.3 -26.35 Q-12.1 -27.35 -10.7 -27.95 M-20.55 -17.1 Q-20.55 -15.9 -14.5 -11.1 -12.9 -9.1 -11.3 -10.1 -9.7 -11.3 -10.5 -12.7 -13.9 -15.9 -14.7 -17.1 -16.95 -19.75 -17.95 -19.95 -19.35 -20.15 -20.15 -18.95 -20.75 -18.15 -20.55 -17.1 M2.75 -4.1 L5.75 7.15 2.75 2.35 -3.1 3.75 -3.3 10.75 -3.9 10.35 -5.9 9.55 -8.1 9.55 -12.1 10.35 -13.1 10.75 -13.9 7.55 -5.3 5.35 -6.3 1.75 -19.15 5.15 -14.1 23.4 -11.3 23.0 -7.1 21.8 -4.9 20.8 -3.5 19.8 -3.7 24.6 0.9 23.4 0.7 18.4 6.55 16.8 9.15 21.2 13.95 20.0 8.15 10.95 17.35 8.55 18.6 12.15 21.2 11.35 19.6 4.95 18.15 5.15 14.75 -7.3 11.35 -6.3 14.55 6.15 9.55 7.35 6.15 -5.1 2.75 -4.1 M2.75 -7.5 L3.35 -10.7 Q4.55 -16.1 3.75 -17.1 3.15 -17.95 -0.5 -19.35 -4.1 -20.75 -4.9 -20.55 -5.5 -20.35 -7.3 -17.55 L-9.5 -15.1 Q-10.7 -13.1 -9.5 -12.3 -8.3 -11.5 -6.7 -12.3 -5.1 -13.3 -3.5 -15.5 -2.9 -15.3 -4.5 -13.3 -5.7 -11.7 -6.7 -10.9 -7.9 -9.9 -11.5 -8.9 -14.9 -8.1 -16.35 -6.9 -18.95 -4.7 -12.1 -2.1 L-8.7 -1.1 -7.1 -1.5 Q-4.3 -2.1 -3.3 0.35 L0.1 -0.45 -0.5 -3.3 Q-0.9 -4.5 -0.1 -5.7 0.5 -7.1 1.95 -7.3 L2.75 -7.5 M-9.3 -25.55 Q-11.9 -25.55 -11.5 -23.35 -11.3 -22.15 -9.9 -20.15 -9.1 -18.35 -8.3 -18.15 -7.5 -17.75 -7.1 -18.75 -5.5 -21.15 -5.9 -22.15 -7.1 -25.55 -9.3 -25.55 M-8.9 -17.75 L-11.1 -20.55 Q-13.3 -23.55 -13.9 -23.55 -15.35 -23.75 -16.35 -22.55 -17.15 -21.75 -17.15 -20.75 -17.15 -20.35 -12.9 -16.1 -10.9 -13.9 -9.9 -15.3 L-8.9 -16.5 Q-8.5 -17.1 -8.9 -17.75 M-19.75 -14.3 Q-22.15 -14.7 -22.15 -12.1 -22.55 -9.5 -18.15 -7.7 L-16.35 -7.9 -14.7 -8.9 Q-12.5 -9.9 -15.95 -11.7 -18.55 -14.1 -19.75 -14.3 M2.75 9.95 L4.95 13.55 0.5 14.75 0.5 6.55 1.95 8.95 2.75 9.95" fill="#ff6500" fill-rule="evenodd" stroke="none"/>
    <path d="M2.75 -4.1 L6.15 -5.1 9.55 7.35 14.55 6.15 11.35 -6.3 14.75 -7.3 18.15 5.15 19.6 4.95 21.2 11.35 18.6 12.15 17.35 8.55 8.15 10.95 13.95 20.0 9.15 21.2 6.55 16.8 0.7 18.4 0.9 23.4 -3.7 24.6 -3.5 19.8 -4.9 20.8 -7.1 21.8 -11.3 23.0 -14.1 23.4 -19.15 5.15 -6.3 1.75 -5.3 5.35 -13.9 7.55 -13.1 10.75 -12.1 10.35 -8.1 9.55 -5.9 9.55 -3.9 10.35 -3.3 10.75 -3.1 3.75 2.75 2.35 5.75 7.15 2.75 -4.1 M-20.55 -17.1 Q-20.75 -18.15 -20.15 -18.95 -19.35 -20.15 -17.95 -19.95 -16.95 -19.75 -14.7 -17.1 -13.9 -15.9 -10.5 -12.7 -9.7 -11.3 -11.3 -10.1 -12.9 -9.1 -14.5 -11.1 -20.55 -15.9 -20.55 -17.1 M2.75 -7.5 L1.95 -7.3 Q0.5 -7.1 -0.1 -5.7 -0.9 -4.5 -0.5 -3.3 L0.1 -0.45 -3.3 0.35 Q-4.3 -2.1 -7.1 -1.5 L-8.7 -1.1 -12.1 -2.1 Q-18.95 -4.7 -16.35 -6.9 -14.9 -8.1 -11.5 -8.9 -7.9 -9.9 -6.7 -10.9 -5.7 -11.7 -4.5 -13.3 -2.9 -15.3 -3.5 -15.5 -5.1 -13.3 -6.7 -12.3 -8.3 -11.5 -9.5 -12.3 -10.7 -13.1 -9.5 -15.1 L-7.3 -17.55 Q-5.5 -20.35 -4.9 -20.55 -4.1 -20.75 -0.5 -19.35 3.15 -17.95 3.75 -17.1 4.55 -16.1 3.35 -10.7 L2.75 -7.5 M-19.75 -14.3 Q-18.55 -14.1 -15.95 -11.7 -12.5 -9.9 -14.7 -8.9 L-16.35 -7.9 -18.15 -7.7 Q-22.55 -9.5 -22.15 -12.1 -22.15 -14.7 -19.75 -14.3 M-8.9 -17.75 Q-8.5 -17.1 -8.9 -16.5 L-9.9 -15.3 Q-10.9 -13.9 -12.9 -16.1 -17.15 -20.35 -17.15 -20.75 -17.15 -21.75 -16.35 -22.55 -15.35 -23.75 -13.9 -23.55 -13.3 -23.55 -11.1 -20.55 L-8.9 -17.75 M-9.3 -25.55 Q-7.1 -25.55 -5.9 -22.15 -5.5 -21.15 -7.1 -18.75 -7.5 -17.75 -8.3 -18.15 -9.1 -18.35 -9.9 -20.15 -11.3 -22.15 -11.5 -23.35 -11.9 -25.55 -9.3 -25.55 M-11.5 13.55 L-12.1 13.95 -10.7 19.4 -9.1 19.0 -7.1 18.0 Q-6.1 17.4 -5.9 16.6 L-5.7 14.95 -6.7 13.75 Q-7.3 13.15 -8.5 13.15 L-10.7 13.35 -11.5 13.55 M2.75 9.95 L1.95 8.95 0.5 6.55 0.5 14.75 4.95 13.55 2.75 9.95" fill="#ffffff" fill-rule="evenodd" stroke="none"/>
    <path d="M-11.5 13.55 L-10.7 13.35 -8.5 13.15 Q-7.3 13.15 -6.7 13.75 L-5.7 14.95 -5.9 16.6 Q-6.1 17.4 -7.1 18.0 L-9.1 19.0 -10.7 19.4 -12.1 13.95 -11.5 13.55" fill="#ff6633" fill-rule="evenodd" stroke="none"/>
  </g>
</svg>
