<?xml version="1.0" encoding="UTF-8" standalone="no"?>
<svg xmlns:ffdec="https://www.free-decompiler.com/flash" xmlns:xlink="http://www.w3.org/1999/xlink" ffdec:objectType="shape" height="109.45px" width="109.6px" xmlns="http://www.w3.org/2000/svg">
  <g transform="matrix(1.0, 0.0, 0.0, 1.0, 54.75, 54.7)">
    <path d="M40.0 -37.65 L40.3 -37.55 29.25 -12.1 27.65 -11.5 27.5 -11.95 20.4 -19.75 40.0 -37.65 M1.45 -54.0 L1.6 -53.95 0.2 -1.4 0.15 -1.4 0.15 -0.8 0.3 -0.9 1.0 -0.55 1.05 -0.65 54.1 2.2 54.1 2.35 26.95 11.8 26.9 11.75 2.05 -0.05 1.8 0.5 17.75 19.8 10.0 28.6 9.95 28.6 -3.2 54.0 -0.7 3.4 -6.15 16.0 -12.2 30.05 -21.3 19.65 -1.75 0.05 -1.65 0.15 -1.45 -0.4 -1.05 -0.4 -0.95 -0.6 -0.4 -1.25 -0.35 -1.25 -0.3 -1.3 -0.2 -1.4 0.1 -1.4 0.2 -1.9 -0.2 -1.4 -0.75 -1.4 -17.2 -22.5 -8.9 -29.5 -8.75 -29.65 1.45 -54.0 M12.95 -28.0 L20.4 -19.75 0.55 -1.65 12.95 -28.0 M-54.0 -2.8 L-54.1 -2.95 -26.55 -14.65 -26.35 -14.8 -0.8 -1.15 -0.95 -0.6 -1.45 -0.4 -54.0 -2.8 M-26.35 -14.8 L-26.7 -15.0 -30.85 -30.25 -34.85 -45.05 -17.2 -22.5 -26.35 -14.8 M-21.3 19.65 L-42.0 40.45 -29.25 10.6 -21.3 19.65 M36.85 41.5 L35.95 41.8 17.75 19.8 26.9 11.8 36.85 41.5" fill="#000000" fill-rule="evenodd" stroke="none"/>
    <path d="M40.0 -37.65 L12.95 -28.0 Q12.8 -28.0 1.6 -53.95 M0.3 -0.9 L0.75 -1.05 14.65 -6.45 27.65 -11.5 M-54.0 -2.8 L-29.4 10.55 -1.45 -0.4 M-35.05 -45.95 L-8.75 -29.65 M-3.2 54.0 L-12.25 30.2 -42.45 41.5 M35.95 41.8 L10.0 28.6 M29.25 -12.1 L54.1 2.2" fill="none" stroke="#000000" stroke-linecap="round" stroke-linejoin="round" stroke-width="1.5"/>
  </g>
</svg>
