<?xml version="1.0" encoding="UTF-8" standalone="no"?>
<svg xmlns:ffdec="https://www.free-decompiler.com/flash" xmlns:xlink="http://www.w3.org/1999/xlink" ffdec:objectType="shape" height="58.35px" width="168.3px" xmlns="http://www.w3.org/2000/svg">
  <g transform="matrix(1.0, 0.0, 0.0, 1.0, -102.45, -86.15)">
    <path d="M104.4 94.6 L120.15 94.6 120.15 89.35 Q120.15 87.45 122.1 87.45 L131.9 87.45 Q133.85 87.45 133.85 89.35 L133.85 94.6 149.65 94.6 Q151.55 94.6 151.55 96.5 L151.55 136.15 Q151.55 138.05 149.65 138.05 L133.85 138.05 133.85 142.55 Q133.85 144.5 131.9 144.5 L122.1 144.5 Q120.15 144.5 120.15 142.55 L120.15 138.05 104.4 138.05 Q102.45 138.05 102.45 136.15 L102.45 96.5 Q102.45 94.6 104.4 94.6 M133.55 106.5 L133.55 126.15 138.7 126.15 138.7 106.5 133.55 106.5 M120.75 126.15 L120.75 106.5 115.3 106.5 115.3 126.15 120.75 126.15" fill="#ffffff" fill-rule="evenodd" stroke="none"/>
    <path d="M192.5 94.6 Q194.4 94.6 194.4 96.5 L194.4 136.15 Q194.4 138.05 192.5 138.05 L182.95 138.05 Q181.05 138.05 181.05 136.15 L181.05 119.05 169.05 137.1 Q168.45 138.05 167.4 138.05 L157.85 138.05 Q155.9 138.05 155.9 136.15 L155.9 96.5 Q155.9 94.6 157.85 94.6 L167.4 94.6 Q169.3 94.6 169.3 96.5 L169.3 113.6 181.6 95.15 Q182.0 94.6 182.95 94.6 L192.5 94.6" fill="#ffffff" fill-rule="evenodd" stroke="none"/>
    <path d="M200.55 94.6 L233.25 94.6 Q235.15 94.6 235.15 96.5 L235.15 126.35 Q235.15 128.25 233.25 128.25 L212.05 128.3 212.05 136.15 Q212.05 138.05 210.1 138.05 L200.55 138.05 Q198.65 138.05 198.65 136.15 L198.65 96.5 Q198.65 94.6 200.55 94.6 M212.05 106.5 L212.05 116.35 221.8 116.35 221.8 106.5 212.05 106.5" fill="#ffffff" fill-rule="evenodd" stroke="none"/>
    <path d="M246.65 89.95 L248.15 120.15 265.4 120.15 266.85 89.95 246.65 89.95 M270.75 88.05 L269.0 124.0 244.5 124.0 242.75 88.15 Q242.7 86.15 244.55 86.15 L268.85 86.15 Q270.85 86.15 270.75 88.05 M244.5 136.15 L244.5 127.8 269.0 127.8 269.0 136.15 Q269.0 138.05 267.1 138.05 L246.4 138.05 Q244.5 138.05 244.5 136.15" fill="#ffffff" fill-rule="evenodd" stroke="none"/>
    <path d="M267.7 98.45 L267.7 121.75 245.75 121.75 245.75 98.45 256.7 98.45 267.7 98.45" fill="#ffffff" fill-rule="evenodd" stroke="none"/>
  </g>
</svg>
