<?xml version="1.0" encoding="UTF-8" standalone="no"?>
<svg xmlns:ffdec="https://www.free-decompiler.com/flash" xmlns:xlink="http://www.w3.org/1999/xlink" ffdec:objectType="shape" height="43.45px" width="39.95px" xmlns="http://www.w3.org/2000/svg">
  <g transform="matrix(1.0, 0.0, 0.0, 1.0, 19.95, 21.7)">
    <path d="M17.6 -18.85 L8.8 -1.85 19.55 18.95 Q21.0 21.75 17.85 21.75 L7.75 21.75 Q6.55 21.85 6.0 20.7 L-2.1 5.1 -6.6 5.1 -6.6 19.85 Q-6.6 21.75 -8.5 21.75 L-18.05 21.75 Q-19.95 21.75 -19.95 19.85 L-19.95 -19.8 Q-19.95 -21.7 -18.05 -21.7 L-8.5 -21.7 Q-6.6 -21.7 -6.6 -19.8 L-6.6 -6.3 -3.25 -6.3 4.15 -20.65 Q4.7 -21.7 5.85 -21.7 L15.95 -21.7 Q19.25 -21.7 17.6 -18.85" fill="#ffffff" fill-rule="evenodd" stroke="none"/>
  </g>
</svg>
