<?xml version="1.0" encoding="UTF-8" standalone="no"?>
<svg xmlns:ffdec="https://www.free-decompiler.com/flash" xmlns:xlink="http://www.w3.org/1999/xlink" ffdec:objectType="shape" height="76.6px" width="119.15px" xmlns="http://www.w3.org/2000/svg">
  <g transform="matrix(1.0, 0.0, 0.0, 1.0, 88.05, 54.5)">
    <path d="M-1.05 -28.55 L-0.55 -27.9 0.2 -27.2 Q3.1 -24.8 11.75 -19.85 20.8 -14.7 30.6 -10.6 L27.7 22.1 -87.55 22.1 -87.55 -7.4 -86.2 -7.55 -82.4 -7.85 -77.45 -6.55 -72.35 -6.2 Q-66.85 -6.2 -61.4 -8.0 -58.0 -9.4 -55.05 -11.3 -52.1 -13.25 -50.5 -15.75 L-49.35 -17.9 Q-48.75 -8.7 -47.35 -7.5 -41.55 -2.6 -33.35 -2.65 L-27.35 -3.35 -24.1 -3.85 Q-20.2 -4.7 -16.75 -6.05 -5.8 -10.35 -3.65 -18.4 L-1.05 -28.55 M-49.5 -18.0 L-49.45 -18.9 -49.4 -18.2 -49.4 -18.1 -49.4 -18.0 -49.5 -18.0 M-48.05 -19.95 L-49.3 -18.0 -49.35 -18.15 -48.05 -19.95" fill="#ffc495" fill-rule="evenodd" stroke="none"/>
    <path d="M-82.4 -7.85 Q-79.4 -8.0 -76.7 -7.75 L-72.5 -8.75 -72.35 -8.8 Q-69.8 -9.5 -63.35 -12.15 -56.7 -14.95 -56.5 -16.2 -52.95 -19.15 -51.65 -18.85 -50.4 -18.6 -51.9 -15.7 -53.2 -13.3 -49.5 -18.0 L-49.4 -18.0 -49.35 -17.9 -50.5 -15.75 Q-52.1 -13.25 -55.05 -11.3 -58.0 -9.4 -61.4 -8.0 -66.85 -6.2 -72.35 -6.2 L-77.45 -6.55 -82.4 -7.85 M-49.35 -18.25 L-48.05 -19.95 -49.35 -18.15 -49.35 -18.25" fill="#ffe7d4" fill-rule="evenodd" stroke="none"/>
    <path d="M-49.45 -18.9 L-49.35 -18.25 -49.35 -18.15 -49.3 -18.0 Q-42.7 -22.5 -32.55 -23.3 -36.0 -26.9 -24.05 -25.4 -9.55 -23.55 -9.7 -45.65 -9.85 -66.85 -3.3 -37.3 L-2.75 -34.75 Q-1.7 -29.65 -1.05 -28.55 L-3.65 -18.4 Q-5.8 -10.35 -16.75 -6.05 -20.2 -4.7 -24.1 -3.85 L-27.35 -3.35 -33.35 -2.65 Q-41.55 -2.6 -47.35 -7.5 -48.75 -8.7 -49.35 -17.9 L-49.4 -18.0 -49.4 -18.1 -49.4 -18.2 -49.45 -18.9 M-22.2 -14.7 L-21.95 -13.95 -21.85 -14.05 -22.2 -14.7" fill="#dba980" fill-rule="evenodd" stroke="none"/>
    <path d="M-1.05 -28.55 L-0.55 -27.9 0.2 -27.2 Q3.1 -24.8 11.75 -19.85 20.8 -14.7 30.6 -10.6 M-87.55 -7.4 L-86.2 -7.55 -82.4 -7.85 Q-79.4 -8.0 -76.7 -7.75 L-72.5 -8.75 -72.35 -8.8 Q-69.8 -9.5 -63.35 -12.15 -56.7 -14.95 -56.5 -16.2 M-3.3 -37.3 L-4.35 -48.65 M-1.05 -28.55 Q-1.7 -29.65 -2.75 -34.75 L-3.3 -37.3" fill="none" stroke="#87684e" stroke-linecap="round" stroke-linejoin="round" stroke-width="1.0"/>
  </g>
</svg>
