<?xml version="1.0" encoding="UTF-8" standalone="no"?>
<svg xmlns:ffdec="https://www.free-decompiler.com/flash" xmlns:xlink="http://www.w3.org/1999/xlink" ffdec:objectType="shape" height="94.4px" width="69.5px" xmlns="http://www.w3.org/2000/svg">
  <g transform="matrix(1.0, 0.0, 0.0, 1.0, 34.75, 48.15)">
    <path d="M1.15 16.15 Q3.2 16.25 3.9 16.65 L5.75 18.4 7.85 20.9 7.95 21.0 8.7 21.75 Q10.9 23.8 12.55 22.8 L14.15 21.75 15.15 21.0 17.2 19.15 Q19.45 16.7 19.95 13.65 L20.05 12.75 Q20.3 10.05 19.6 5.2 L18.7 0.1 23.65 -3.35 24.1 -4.7 Q24.4 -5.75 23.65 -8.75 L22.8 -11.65 22.9 -10.7 21.9 -13.3 Q20.7 -16.25 15.7 -21.65 L11.05 -26.55 11.8 -27.55 Q12.25 -28.0 12.3 -30.0 L12.3 -31.75 12.75 -38.95 12.85 -42.1 13.05 -42.0 13.35 -41.8 13.45 -41.7 13.8 -41.45 Q16.5 -39.4 19.1 -36.65 22.35 -33.15 24.7 -29.4 27.05 -25.65 28.5 -19.75 29.95 -13.8 29.75 -10.5 L29.25 -1.75 29.2 -1.6 29.25 -1.65 30.7 -3.2 Q32.5 -4.6 33.4 -3.1 L34.0 -1.55 Q34.35 0.15 34.25 3.1 34.1 7.05 33.4 9.35 L32.45 12.75 32.3 13.4 32.3 15.15 Q32.25 17.1 31.8 17.85 31.25 18.75 30.55 19.0 L29.2 18.85 28.2 18.2 27.85 17.9 27.65 23.05 27.3 24.3 Q24.5 30.25 22.45 32.95 20.45 35.65 17.6 38.2 14.75 40.8 12.1 42.45 9.45 44.1 8.15 45.15 L7.25 45.75 Q9.25 44.25 9.9 43.05 10.7 41.45 11.75 37.3 L9.7 33.2 Q9.9 33.8 8.1 31.2 6.3 28.55 6.25 25.4 L6.1 21.75 5.0 19.55 Q4.0 17.75 2.65 17.0 L1.15 16.15 M-28.5 -20.75 Q-24.1 -22.7 -19.4 -21.95 -15.25 -21.25 -12.65 -19.15 L-11.9 -19.4 Q-11.05 -19.7 -10.4 -20.15 L-8.55 -19.95 -8.2 -19.75 -3.35 -21.15 Q9.45 -24.2 14.5 -17.1 17.55 -12.85 17.75 -7.3 L11.55 -0.9 Q7.85 2.35 1.45 -1.55 L-1.15 -3.35 0.2 -0.65 -0.3 6.25 Q-0.4 5.5 -1.35 4.4 L-3.35 2.2 -4.15 1.4 Q-7.7 -1.9 -7.7 -2.4 L-6.6 -8.3 -5.65 -12.45 -6.95 -14.7 -10.65 -14.45 -12.5 -12.55 -15.15 -9.8 -14.85 -9.3 -16.5 -8.25 Q-17.4 -6.95 -19.35 -5.4 L-24.0 -0.65 Q-26.65 -0.1 -29.15 -1.65 L-30.8 -2.9 -31.95 -4.1 -30.65 -8.3 -30.0 -9.6 -30.0 -9.8 -29.7 -14.5 -29.55 -17.35 -29.35 -18.65 -29.15 -19.15 -28.55 -20.15 -28.5 -20.75 M28.25 12.55 L27.85 17.9 28.25 12.55 29.05 12.75 29.95 12.75 30.6 12.4 31.4 10.85 Q32.25 9.15 32.3 8.1 L32.55 4.9 Q32.65 2.8 32.35 1.65 32.05 0.5 30.9 -0.05 L30.25 -0.25 30.05 0.05 28.9 2.3 28.25 12.55 M29.25 -1.65 L29.2 -1.5 29.15 -1.25 28.9 2.3 29.15 -1.25 29.2 -1.5 29.25 -1.65 M30.25 -0.25 Q31.2 -2.0 31.85 -2.0 L33.9 -1.6 34.0 -1.55 33.9 -1.6 31.85 -2.0 Q31.2 -2.0 30.25 -0.25 M-12.75 -14.85 L-12.55 -13.25 -12.5 -12.55 -12.55 -13.25 -12.75 -14.85 M-4.85 -1.75 L-4.75 -0.05 -3.15 1.2 Q-2.45 1.75 -1.85 2.6 -1.45 3.1 -1.35 4.4 -1.45 3.1 -1.85 2.6 -2.45 1.75 -3.15 1.2 L-4.75 -0.05 -4.85 -1.75" fill="#dba980" fill-rule="evenodd" stroke="none"/>
    <path d="M12.85 -42.1 L12.75 -38.95 12.3 -31.75 12.3 -30.0 Q12.25 -28.0 11.8 -27.55 L11.05 -26.55 15.7 -21.65 Q20.7 -16.25 21.9 -13.3 L22.9 -10.7 22.8 -11.65 23.65 -8.75 Q24.4 -5.75 24.1 -4.7 L23.65 -3.35 18.7 0.1 19.6 5.2 Q20.3 10.05 20.05 12.75 L19.95 13.65 Q19.45 16.7 17.2 19.15 L15.15 21.0 14.15 21.75 12.55 22.8 Q10.9 23.8 8.7 21.75 L7.95 21.0 7.85 20.9 5.75 18.4 3.9 16.65 Q3.2 16.25 1.15 16.15 L-1.75 14.15 -3.1 13.15 -3.4 12.75 Q-4.95 11.55 -5.25 10.25 L-5.5 8.65 -3.9 8.6 -3.35 8.55 Q-1.2 8.2 -1.25 5.95 L-1.35 4.4 -1.25 5.95 Q-1.2 8.2 -3.35 8.55 L-3.9 8.6 -5.5 8.65 -8.6 8.5 -10.3 8.25 -12.9 8.35 -15.65 8.5 -15.85 8.35 -17.15 6.75 Q-18.1 5.45 -18.45 4.4 -18.75 3.4 -17.2 1.75 L-15.6 0.35 -14.85 -3.35 -13.85 -7.15 -13.0 -9.65 -12.65 -10.65 Q-12.45 -11.3 -12.5 -12.55 -12.45 -11.3 -12.65 -10.65 L-13.0 -9.65 -13.85 -7.15 -14.85 -3.35 -15.6 0.35 -17.2 1.75 Q-18.75 3.4 -18.45 4.4 -18.1 5.45 -17.15 6.75 L-15.85 8.35 -15.65 8.5 -18.4 13.2 -21.25 15.7 Q-21.8 17.85 -23.2 18.9 -24.65 19.9 -24.95 21.5 L-25.3 21.15 -26.6 19.65 Q-28.75 16.8 -28.9 14.65 L-28.9 12.75 -28.65 8.95 -28.2 5.75 -28.25 5.4 -29.65 1.1 -29.15 -1.65 Q-26.65 -0.1 -24.0 -0.65 L-19.35 -5.4 Q-17.4 -6.95 -16.5 -8.25 L-14.85 -9.3 -15.15 -9.8 -12.5 -12.55 -10.65 -14.45 -6.95 -14.7 -5.65 -12.45 -6.6 -8.3 -7.7 -2.4 Q-7.7 -1.9 -4.15 1.4 L-3.35 2.2 -1.35 4.4 Q-0.4 5.5 -0.3 6.25 L0.2 -0.65 -1.15 -3.35 1.45 -1.55 Q7.85 2.35 11.55 -0.9 L17.75 -7.3 Q17.55 -12.85 14.5 -17.1 9.45 -24.2 -3.35 -21.15 L-8.2 -19.75 -8.55 -19.95 -10.4 -20.15 Q-11.05 -19.7 -11.9 -19.4 L-12.65 -19.15 Q-15.25 -21.25 -19.4 -21.95 -24.1 -22.7 -28.5 -20.75 L-28.4 -21.9 -23.6 -25.0 -22.75 -25.5 Q-22.15 -32.65 -19.25 -37.6 L-17.6 -41.95 -16.45 -43.05 Q-9.65 -47.4 -5.6 -47.6 L-3.35 -47.65 2.65 -47.15 Q6.95 -46.55 13.35 -41.8 L13.05 -42.0 12.85 -42.1 M2.05 22.9 L1.8 22.45 2.1 22.4 2.65 25.65 2.7 28.4 2.65 33.8 Q2.5 37.85 0.75 38.65 L-4.2 40.9 Q-7.4 42.4 -8.95 39.85 -10.55 37.3 -8.5 36.1 -10.3 33.45 -12.1 34.25 L-12.2 35.85 Q-12.2 37.35 -13.15 38.9 -14.15 40.4 -17.9 40.25 -21.65 40.1 -22.25 32.1 L-22.6 29.0 -22.15 26.4 -21.75 24.6 Q-21.7 24.85 -19.35 23.05 -17.0 21.2 -16.8 24.5 -16.65 27.8 -11.75 27.85 L-4.65 27.65 -3.35 27.45 Q-1.85 27.15 -1.25 25.95 -0.7 24.7 0.05 24.05 0.8 23.35 1.4 23.4 2.0 23.4 2.05 22.9 M-6.05 4.5 Q-7.0 4.45 -8.5 5.9 L-9.7 7.35 -9.05 7.5 -7.75 7.55 Q-4.65 7.1 -4.05 6.05 -3.35 4.75 -6.05 4.5 M-16.1 5.0 Q-16.5 5.65 -16.35 6.05 L-15.75 7.05 -14.75 7.65 -12.85 7.3 -14.75 5.1 -15.65 4.35 -16.1 5.0" fill="#ffc495" fill-rule="evenodd" stroke="none"/>
    <path d="M28.25 12.55 L28.9 2.3 30.05 0.05 30.25 -0.25 30.9 -0.05 Q32.05 0.5 32.35 1.65 32.65 2.8 32.55 4.9 L32.3 8.1 Q32.25 9.15 31.4 10.85 L30.6 12.4 29.95 12.75 29.05 12.75 28.25 12.55" fill="#bb906d" fill-rule="evenodd" stroke="none"/>
    <path d="M-17.6 -41.95 L-19.25 -37.6 Q-22.15 -32.65 -22.75 -25.5 L-23.6 -25.0 -28.4 -21.9 -27.95 -26.8 -25.6 -32.0 -24.45 -34.45 -22.0 -37.85 -17.6 -41.95 M-31.95 -4.1 L-30.8 -2.9 -29.15 -1.65 -29.65 1.1 -28.25 5.4 -28.2 5.75 -28.65 8.95 -28.9 12.75 -28.9 14.65 Q-28.75 16.8 -26.6 19.65 L-25.3 21.15 Q-25.45 21.0 -25.45 21.25 -25.4 21.6 -25.8 21.75 -26.2 21.85 -26.55 22.9 L-27.55 26.5 Q-28.0 35.5 -28.9 34.0 -29.55 33.0 -29.9 31.55 L-30.0 31.1 -30.05 30.9 -30.25 29.9 -30.35 30.0 -30.0 32.0 Q-29.7 34.05 -29.95 32.6 L-31.0 27.1 -31.8 22.6 -31.95 21.75 -32.05 21.0 -32.35 19.3 -33.0 19.5 Q-34.25 19.8 -34.25 18.7 L-34.0 15.0 -33.75 12.75 -33.45 10.15 -33.5 9.45 Q-33.9 3.5 -32.3 -2.95 L-31.95 -4.1 M-32.35 19.3 L-33.2 12.75 -33.45 10.15 -33.2 12.75 -32.35 19.3" fill="#ffe7d4" fill-rule="evenodd" stroke="none"/>
    <path d="M-6.05 4.5 Q-3.35 4.75 -4.05 6.05 -4.65 7.1 -7.75 7.55 L-9.05 7.5 -9.7 7.35 -8.5 5.9 Q-7.0 4.45 -6.05 4.5 M-16.1 5.0 L-15.65 4.35 -14.75 5.1 -12.85 7.3 -14.75 7.65 -15.75 7.05 -16.35 6.05 Q-16.5 5.65 -16.1 5.0" fill="#705641" fill-rule="evenodd" stroke="none"/>
    <path d="M12.85 -42.1 L13.05 -42.0 13.35 -41.8 Q6.95 -46.55 2.65 -47.15 L-3.35 -47.65 -5.6 -47.6 Q-9.65 -47.4 -16.45 -43.05 L-17.6 -41.95 -22.0 -37.85 -24.45 -34.45 -25.6 -32.0 -27.95 -26.8 -28.4 -21.9 -28.5 -20.75 -28.55 -20.15 -29.15 -19.15 -29.35 -18.65 -29.55 -17.35 -29.7 -14.5 -30.0 -9.8 -30.0 -9.6 -30.65 -8.3 -31.95 -4.1 -32.3 -2.95 Q-33.9 3.5 -33.5 9.45 L-33.45 10.15 -33.2 12.75 -32.35 19.3 -32.05 21.0 -31.95 21.75 -31.8 22.6 -31.0 27.1 -29.95 32.6 M-1.35 4.4 L-1.25 5.95 Q-1.2 8.2 -3.35 8.55 L-3.9 8.6 -5.5 8.65 -8.6 8.5 -10.3 8.25 -12.9 8.35 -15.65 8.5 -15.85 8.35 -17.15 6.75 Q-18.1 5.45 -18.45 4.4 -18.75 3.4 -17.2 1.75 L-15.6 0.35 -14.85 -3.35 -13.85 -7.15 -13.0 -9.65 -12.65 -10.65 Q-12.45 -11.3 -12.5 -12.55 L-12.55 -13.25 -12.75 -14.85 M7.25 45.75 L8.15 45.15 Q9.45 44.1 12.1 42.45 14.75 40.8 17.6 38.2 20.45 35.65 22.45 32.95 24.5 30.25 27.3 24.3 L27.65 23.05 27.85 17.9 28.25 12.55 28.9 2.3 29.15 -1.25 29.2 -1.5 29.25 -1.65 29.2 -1.6 29.25 -1.75 29.75 -10.5 Q29.95 -13.8 28.5 -19.75 27.05 -25.65 24.7 -29.4 22.35 -33.15 19.1 -36.65 16.5 -39.4 13.8 -41.45 L13.45 -41.7 13.35 -41.8 M29.25 -1.75 L29.25 -1.65 30.7 -3.2 Q32.5 -4.6 33.4 -3.1 L34.0 -1.55 Q34.35 0.15 34.25 3.1 34.1 7.05 33.4 9.35 L32.45 12.75 32.3 13.4 32.3 15.15 Q32.25 17.1 31.8 17.85 31.25 18.75 30.55 19.0 L29.2 18.85 28.2 18.2 27.85 17.9 M34.0 -1.55 L33.9 -1.6 31.85 -2.0 Q31.2 -2.0 30.25 -0.25 L30.9 -0.05 Q32.05 0.5 32.35 1.65 32.65 2.8 32.55 4.9 L32.3 8.1 Q32.25 9.15 31.4 10.85 L30.6 12.4 29.95 12.75 29.05 12.75 28.25 12.55 M30.25 -0.25 L30.05 0.05 28.9 2.3 M-1.35 4.4 Q-1.45 3.1 -1.85 2.6 -2.45 1.75 -3.15 1.2 L-4.75 -0.05 -4.85 -1.75 M-33.45 10.15 L-33.75 12.75 -34.0 15.0 -34.25 18.7 Q-34.25 19.8 -33.0 19.5 L-32.35 19.3" fill="none" stroke="#87684e" stroke-linecap="round" stroke-linejoin="round" stroke-width="1.0"/>
  </g>
</svg>
