<?xml version="1.0" encoding="UTF-8" standalone="no"?>
<svg xmlns:ffdec="https://www.free-decompiler.com/flash" xmlns:xlink="http://www.w3.org/1999/xlink" ffdec:objectType="shape" height="7.05px" width="23.9px" xmlns="http://www.w3.org/2000/svg">
  <g transform="matrix(1.0, 0.0, 0.0, 1.0, 11.7, 3.25)">
    <path d="M-9.15 3.3 L-11.7 3.3 -11.6 3.15 -10.85 2.45 -10.8 2.45 -9.7 1.45 -8.85 0.8 -5.6 -1.45 -3.6 -2.9 -2.4 -3.1 -0.8 -3.0 2.65 -3.25 5.15 -1.45 6.25 -0.6 9.45 1.45 9.75 1.6 11.4 2.55 11.65 3.0 11.6 3.3 9.0 3.3 9.55 3.05 9.85 3.0 9.25 2.65 7.3 1.45 6.25 0.85 5.9 0.7 4.15 -0.2 Q1.55 -1.4 -0.15 -1.5 -2.4 -1.65 -5.55 0.1 L-5.65 0.1 Q-7.25 0.8 -8.15 1.45 -9.25 2.2 -9.4 2.85 L-9.3 3.1 -9.15 3.3" fill="#e2895d" fill-rule="evenodd" stroke="none"/>
    <path d="M-9.4 2.85 Q-9.25 2.2 -8.15 1.45 -7.25 0.8 -5.65 0.1 L-5.55 0.1 -4.6 0.45 3.55 0.6 4.15 -0.2 5.9 0.7 6.25 0.85 7.3 1.45 9.25 2.65 9.85 3.0 9.55 3.05 9.0 3.3 7.05 3.3 6.4 2.2 3.55 1.55 -7.35 1.95 -9.05 2.95 -9.4 2.85" fill="#0b0000" fill-rule="evenodd" stroke="none"/>
    <path d="M-5.55 0.1 Q-2.4 -1.65 -0.15 -1.5 1.55 -1.4 4.15 -0.2 L3.55 0.6 -4.6 0.45 -5.55 0.1" fill="#cccccc" fill-rule="evenodd" stroke="none"/>
    <path d="M-9.15 3.3 L-9.3 3.1 -9.4 2.85 Q-9.25 2.2 -8.15 1.45 -7.25 0.8 -5.65 0.1 L-5.55 0.1 Q-2.4 -1.65 -0.15 -1.5 1.55 -1.4 4.15 -0.2 L5.9 0.7 6.25 0.85 7.3 1.45 9.25 2.65 M9.55 3.05 L9.0 3.3 M11.6 3.3 L11.65 3.0 11.4 2.55 11.7 2.5 M-9.05 2.95 L-9.4 2.85 M-9.3 3.1 L-9.05 2.95" fill="none" stroke="#87684e" stroke-linecap="round" stroke-linejoin="round" stroke-width="1.0"/>
  </g>
</svg>
