<?xml version="1.0" encoding="UTF-8" standalone="no"?>
<svg xmlns:ffdec="https://www.free-decompiler.com/flash" xmlns:xlink="http://www.w3.org/1999/xlink" ffdec:objectType="shape" height="6.95px" width="24.75px" xmlns="http://www.w3.org/2000/svg">
  <g transform="matrix(1.0, 0.0, 0.0, 1.0, 12.35, 3.2)">
    <path d="M11.9 -1.45 L11.65 -0.85 11.2 0.2 Q10.45 1.4 9.15 2.0 L6.55 2.8 5.25 3.0 -1.95 3.25 -9.05 2.55 Q-11.25 1.95 -11.7 0.5 L-11.85 -0.05 Q-11.9 -0.8 -11.4 -1.45 L-8.85 -1.45 Q-8.4 -0.65 -7.5 -0.35 L-3.2 0.1 2.7 0.15 6.55 -0.4 7.75 -0.8 7.95 -0.9 9.3 -1.45 11.9 -1.45" fill="#e2895d" fill-rule="evenodd" stroke="none"/>
    <path d="M7.75 -0.8 L6.55 -0.4 2.7 0.15 -3.2 0.1 -7.5 -0.35 Q-8.4 -0.65 -8.85 -1.45 L-9.0 -1.65 -7.05 -2.8 3.85 -3.2 6.7 -2.55 7.35 -1.45 7.75 -0.8" fill="#ffffff" fill-rule="evenodd" stroke="none"/>
    <path d="M9.3 -1.45 L7.95 -0.9 7.75 -0.8 7.35 -1.45 9.3 -1.45" fill="#0b0000" fill-rule="evenodd" stroke="none"/>
    <path d="M-11.85 -0.05 L-11.7 0.5 Q-11.25 1.95 -9.05 2.55 L-1.95 3.25 5.25 3.0 6.55 2.8 9.15 2.0 Q10.45 1.4 11.2 0.2 L11.65 -0.85 11.9 -1.45 M9.3 -1.45 L7.95 -0.9 7.75 -0.8 6.55 -0.4 2.7 0.15 -3.2 0.1 -7.5 -0.35 Q-8.4 -0.65 -8.85 -1.45" fill="none" stroke="#87684e" stroke-linecap="round" stroke-linejoin="round" stroke-width="1.0"/>
  </g>
</svg>
