<?xml version="1.0" encoding="UTF-8" standalone="no"?>
<svg xmlns:ffdec="https://www.free-decompiler.com/flash" xmlns:xlink="http://www.w3.org/1999/xlink" ffdec:objectType="shape" height="43.4px" width="43.95px" xmlns="http://www.w3.org/2000/svg">
  <g transform="matrix(1.0, 0.0, 0.0, 1.0, 21.95, 21.55)">
    <path d="M-21.45 0.35 L-21.4 0.25 -18.75 -3.05 Q-18.75 -5.5 -18.05 -7.4 L-17.25 -9.2 -16.05 -10.9 -13.55 -13.5 Q-11.55 -14.9 -9.6 -16.35 L-6.85 -21.05 -4.1 -21.2 -1.5 -21.3 0.2 -21.05 3.3 -20.9 3.55 -19.3 Q3.85 -18.0 5.4 -16.8 L5.45 -16.75 Q6.4 -16.05 7.8 -15.35 L11.1 -13.65 12.75 -12.55 Q13.9 -11.5 15.15 -6.9 16.35 -2.3 18.35 0.5 20.15 2.95 21.5 2.55 L20.55 7.75 Q19.5 11.9 18.7 13.5 18.05 14.7 16.05 16.2 L13.0 18.25 Q8.35 21.0 5.7 21.3 L5.45 21.3 -3.65 20.7 -11.15 19.5 -11.6 19.3 -13.35 18.1 -13.95 17.45 -14.5 16.95 -14.8 16.65 -16.45 14.9 -17.7 13.45 Q-19.35 11.25 -19.85 9.45 -20.55 7.05 -21.05 3.35 L-21.4 0.75 -21.45 0.35 M-11.65 -7.2 L-12.4 -6.5 Q-13.0 -5.8 -12.95 -4.95 L-13.35 -3.15 -13.8 -0.55 -13.45 2.55 Q-11.8 5.95 -8.4 6.3 -5.35 6.6 -3.6 4.85 L-3.55 4.8 -3.3 4.7 Q-1.5 3.9 0.3 6.55 L4.45 6.85 5.45 6.55 Q6.7 6.15 8.4 5.2 10.8 3.9 11.2 2.05 11.55 0.15 11.5 -1.15 L11.45 -3.9 10.9 -7.15 10.6 -7.1 8.95 -8.05 Q7.4 -8.8 5.45 -10.25 L4.35 -11.1 1.85 -12.9 -1.6 -12.65 -3.2 -12.75 -4.4 -12.55 -6.4 -11.1 -9.65 -8.85 -11.6 -7.2 -11.65 -7.2" fill="#663300" fill-rule="evenodd" stroke="none"/>
    <path d="M-21.45 0.35 L-21.4 0.25 -18.75 -3.05 Q-18.75 -5.5 -18.05 -7.4 L-17.25 -9.2 -16.05 -10.9 -13.55 -13.5 Q-11.55 -14.9 -9.6 -16.35 L-6.85 -21.05 M3.3 -20.9 L3.55 -19.3 Q3.85 -18.0 5.4 -16.8 L5.45 -16.75 Q6.4 -16.05 7.8 -15.35 L11.1 -13.65 12.75 -12.55 Q13.9 -11.5 15.15 -6.9 16.35 -2.3 18.35 0.5 20.15 2.95 21.5 2.55 L20.55 7.75 Q19.5 11.9 18.7 13.5 18.05 14.7 16.05 16.2 L13.0 18.25 Q8.35 21.0 5.7 21.3 L5.45 21.3 -3.65 20.7 -11.15 19.5 -11.6 19.3 -13.35 18.1 M-13.95 17.45 L-14.5 16.95 -14.8 16.65 -16.45 14.9 -17.7 13.45 Q-19.35 11.25 -19.85 9.45 -20.55 7.05 -21.05 3.35 L-21.4 0.75 M-11.65 -7.2 L-12.4 -6.5 Q-13.0 -5.8 -12.95 -4.95 L-13.35 -3.15 -13.8 -0.55 -13.45 2.55 Q-11.8 5.95 -8.4 6.3 -5.35 6.6 -3.6 4.85 L-3.55 4.8 -3.3 4.7 Q-1.5 3.9 0.3 6.55 L4.45 6.85 5.45 6.55 Q6.7 6.15 8.4 5.2 10.8 3.9 11.2 2.05 11.55 0.15 11.5 -1.15 L11.45 -3.9 10.9 -7.15 M10.6 -7.1 L8.95 -8.05 Q7.4 -8.8 5.45 -10.25 L4.35 -11.1 1.85 -12.9 -1.6 -12.65 -3.2 -12.75 -4.4 -12.55 -6.4 -11.1 -9.65 -8.85 -11.6 -7.2" fill="none" stroke="#87684e" stroke-linecap="round" stroke-linejoin="round" stroke-width="1.0"/>
  </g>
</svg>
