<?xml version="1.0" encoding="UTF-8" standalone="no"?>
<svg xmlns:ffdec="https://www.free-decompiler.com/flash" xmlns:xlink="http://www.w3.org/1999/xlink" ffdec:objectType="shape" height="7.5px" width="43.2px" xmlns="http://www.w3.org/2000/svg">
  <g transform="matrix(1.0, 0.0, 0.0, 1.0, 21.6, 3.75)">
    <path d="M9.05 -2.0 L13.1 -2.25 Q14.8 -2.1 17.45 -0.9 L21.1 0.95 19.4 1.2 17.15 0.45 15.05 0.1 11.6 0.2 Q9.75 0.35 7.8 1.8 L6.2 3.2 5.1 3.25 4.35 3.2 3.2 1.55 4.15 0.65 5.1 -0.2 6.05 -0.9 Q7.15 -1.6 9.05 -2.0 M-12.4 -3.15 L-10.35 -2.4 -8.65 -2.25 -8.15 -2.4 -4.75 1.3 -4.75 1.35 -5.85 2.2 -5.9 2.2 Q-9.0 0.1 -9.75 0.1 L-11.65 0.1 -13.7 -0.05 -15.65 -0.55 -15.7 -0.55 -19.25 -0.15 -21.1 0.3 -20.9 -1.0 Q-19.5 -1.8 -18.5 -2.0 L-14.9 -2.6 Q-14.05 -2.6 -12.45 -3.25 L-12.4 -3.15" fill="#663300" fill-rule="evenodd" stroke="none"/>
    <path d="M9.05 -2.0 Q7.15 -1.6 6.05 -0.9 L5.1 -0.2 4.15 0.65 3.2 1.55 4.35 3.2 5.1 3.25 6.2 3.2 7.8 1.8 Q9.75 0.35 11.6 0.2 L15.05 0.1 17.15 0.45 19.4 1.2 21.1 0.95 17.45 -0.9 Q14.8 -2.1 13.1 -2.25 L9.05 -2.0 M-12.4 -3.15 L-10.35 -2.4 -8.65 -2.25 -8.15 -2.4 -4.75 1.3 M-4.75 1.35 L-5.85 2.2 M-5.9 2.2 Q-9.0 0.1 -9.75 0.1 L-11.65 0.1 -13.7 -0.05 -15.65 -0.55 M-15.7 -0.55 L-19.25 -0.15 -21.1 0.3 M-20.9 -1.0 Q-19.5 -1.8 -18.5 -2.0 L-14.9 -2.6 Q-14.05 -2.6 -12.45 -3.25" fill="none" stroke="#87684e" stroke-linecap="round" stroke-linejoin="round" stroke-width="1.0"/>
  </g>
</svg>
