<?xml version="1.0" encoding="UTF-8" standalone="no"?>
<svg xmlns:ffdec="https://www.free-decompiler.com/flash" xmlns:xlink="http://www.w3.org/1999/xlink" ffdec:objectType="shape" height="15.7px" width="41.7px" xmlns="http://www.w3.org/2000/svg">
  <g transform="matrix(1.0, 0.0, 0.0, 1.0, 20.85, 7.85)">
    <path d="M-6.9 -3.65 L-9.1 -5.6 Q-11.7 -7.5 -13.95 -7.2 -16.2 -6.9 -18.0 -5.55 L-19.4 -4.25 M-9.55 0.25 Q-10.45 1.55 -12.4 3.1 L-13.2 3.65 Q-15.05 4.95 -16.95 5.25 -18.65 5.45 -19.75 4.75 L-20.2 4.15 Q-20.45 3.4 -20.25 1.95 L-19.75 -0.15 M5.8 -3.5 L6.6 -4.35 8.65 -6.1 Q11.95 -8.35 15.3 -6.6 18.55 -4.8 19.25 -3.35 L20.35 -1.05 M7.05 0.8 L9.8 2.6 Q12.9 4.45 14.2 4.5 L16.4 4.4 M6.15 1.45 L8.2 4.55 Q10.7 7.6 12.95 7.35 15.2 7.15 17.7 6.05 L19.75 5.0" fill="none" stroke="#87684e" stroke-linecap="round" stroke-linejoin="round" stroke-width="1.0"/>
  </g>
</svg>
