<?xml version="1.0" encoding="UTF-8" standalone="no"?>
<svg xmlns:ffdec="https://www.free-decompiler.com/flash" xmlns:xlink="http://www.w3.org/1999/xlink" ffdec:objectType="shape" height="8.85px" width="38.75px" xmlns="http://www.w3.org/2000/svg">
  <g transform="matrix(1.0, 0.0, 0.0, 1.0, 19.35, 4.4)">
    <path d="M-13.3 -3.65 Q-11.7 -3.8 -9.55 -1.35 L-8.05 0.7 -7.75 1.2 -9.4 2.25 -9.8 2.5 Q-11.5 3.4 -13.3 3.8 -16.2 4.3 -17.95 2.35 L-18.85 1.05 -16.95 -1.55 Q-14.95 -3.45 -13.3 -3.65 M17.8 -0.75 Q18.75 0.55 18.9 1.4 18.15 2.4 16.55 3.1 14.9 3.8 13.15 3.95 11.35 4.05 8.7 2.6 L6.05 0.95 8.25 -1.75 Q11.15 -3.9 12.7 -3.9 14.25 -3.9 15.55 -2.95 L17.8 -0.75" fill="#ffffff" fill-rule="evenodd" stroke="none"/>
    <path d="M-13.3 -3.65 Q-14.95 -3.45 -16.95 -1.55 L-18.85 1.05 -17.95 2.35 Q-16.2 4.3 -13.3 3.8 -11.5 3.4 -9.8 2.5 L-9.4 2.25 -7.75 1.2 -8.05 0.7 -9.55 -1.35 Q-11.7 -3.8 -13.3 -3.65 M17.8 -0.75 Q18.75 0.55 18.9 1.4 18.15 2.4 16.55 3.1 14.9 3.8 13.15 3.95 11.35 4.05 8.7 2.6 L6.05 0.95 8.25 -1.75 Q11.15 -3.9 12.7 -3.9 14.25 -3.9 15.55 -2.95 L17.8 -0.75 Z" fill="none" stroke="#87684e" stroke-linecap="round" stroke-linejoin="round" stroke-width="1.0"/>
  </g>
</svg>
