<?xml version="1.0" encoding="UTF-8" standalone="no"?>
<svg xmlns:ffdec="https://www.free-decompiler.com/flash" xmlns:xlink="http://www.w3.org/1999/xlink" ffdec:objectType="shape" height="4.2px" width="30.9px" xmlns="http://www.w3.org/2000/svg">
  <g transform="matrix(1.0, 0.0, 0.0, 1.0, 15.45, 2.1)">
    <path d="M-13.75 -0.75 L-13.35 -0.85 Q-12.4 -0.9 -12.4 -0.05 L-12.7 0.55 Q-13.0 0.9 -13.4 0.9 -13.95 0.9 -14.15 0.45 L-14.2 0.05 Q-13.65 0.05 -13.65 -0.45 L-13.75 -0.75 M12.95 -0.75 L13.4 -0.8 Q14.25 -0.75 14.25 0.05 L14.05 0.55 Q13.8 0.9 13.4 0.9 L12.6 0.45 12.55 0.2 12.95 -0.05 13.05 -0.45 12.95 -0.75" fill="#000000" fill-rule="evenodd" stroke="none"/>
    <path d="M-14.2 0.05 L-14.15 0.45 Q-13.95 0.9 -13.4 0.9 -13.0 0.9 -12.7 0.55 L-12.4 -0.05 Q-12.4 -0.9 -13.35 -0.85 L-13.75 -0.75 Q-13.9 -1.0 -14.25 -1.05 -14.85 -1.1 -14.85 -0.45 L-14.8 -0.25 -14.25 0.05 -14.2 0.05 M-13.35 2.05 Q-14.2 2.05 -14.85 1.45 -15.45 0.85 -15.45 0.0 -15.45 -0.85 -14.85 -1.5 -14.2 -2.1 -13.35 -2.1 -12.5 -2.1 -11.85 -1.5 -11.25 -0.85 -11.25 0.0 -11.25 0.85 -11.85 1.45 -12.5 2.05 -13.35 2.05 M11.25 0.05 Q11.25 -0.8 11.85 -1.45 12.5 -2.05 13.35 -2.05 14.2 -2.05 14.85 -1.45 15.45 -0.8 15.45 0.05 15.45 0.9 14.85 1.5 14.2 2.1 13.35 2.1 12.5 2.1 11.85 1.5 11.25 0.9 11.25 0.05 M12.95 -0.75 L12.5 -0.95 Q11.9 -1.0 11.9 -0.4 L11.95 -0.1 Q12.05 0.2 12.45 0.2 L12.55 0.2 12.6 0.45 13.4 0.9 Q13.8 0.9 14.05 0.55 L14.25 0.05 Q14.25 -0.75 13.4 -0.8 L12.95 -0.75" fill="#999999" fill-rule="evenodd" stroke="none"/>
    <path d="M-13.75 -0.75 L-13.65 -0.45 Q-13.65 0.05 -14.2 0.05 L-14.25 0.05 -14.8 -0.25 -14.85 -0.45 Q-14.85 -1.1 -14.25 -1.05 -13.9 -1.0 -13.75 -0.75 M12.55 0.2 L12.45 0.2 Q12.05 0.2 11.95 -0.1 L11.9 -0.4 Q11.9 -1.0 12.5 -0.95 L12.95 -0.75 13.05 -0.45 12.95 -0.05 12.55 0.2" fill="#ffffff" fill-rule="evenodd" stroke="none"/>
  </g>
</svg>
