<?xml version="1.0" encoding="UTF-8" standalone="no"?>
<svg xmlns:ffdec="https://www.free-decompiler.com/flash" xmlns:xlink="http://www.w3.org/1999/xlink" ffdec:objectType="shape" height="43.45px" width="35.05px" xmlns="http://www.w3.org/2000/svg">
  <g transform="matrix(1.0, 0.0, 0.0, 1.0, 17.5, 21.7)">
    <path d="M15.65 -9.8 L-4.1 -9.8 -4.1 -5.9 8.45 -5.9 Q10.4 -5.9 10.4 -4.0 L10.4 2.8 Q10.4 4.7 8.45 4.7 L-4.1 4.7 -4.1 9.85 15.65 9.85 Q17.55 9.85 17.55 11.75 L17.55 19.85 Q17.55 21.75 15.65 21.75 L-15.55 21.75 Q-17.5 21.75 -17.5 19.85 L-17.5 -19.8 Q-17.5 -21.7 -15.55 -21.7 L15.65 -21.7 Q17.55 -21.7 17.55 -19.8 L17.55 -11.7 Q17.55 -9.8 15.65 -9.8" fill="#ffffff" fill-rule="evenodd" stroke="none"/>
  </g>
</svg>
