<?xml version="1.0" encoding="UTF-8" standalone="no"?>
<svg xmlns:ffdec="https://www.free-decompiler.com/flash" xmlns:xlink="http://www.w3.org/1999/xlink" ffdec:objectType="shape" height="18.7px" width="26.5px" xmlns="http://www.w3.org/2000/svg">
  <g transform="matrix(1.0, 0.0, 0.0, 1.0, 13.25, 9.45)">
    <path d="M11.95 -5.9 L12.35 -3.0 10.15 8.75 7.05 7.0 7.45 7.0 11.95 -5.9 M-11.0 6.95 L-12.75 6.9 -12.65 6.0 Q-11.75 0.05 -7.45 -8.95 L-5.8 -8.1 -5.75 -8.1 -11.0 6.95" fill="#e2895d" fill-rule="evenodd" stroke="none"/>
    <path d="M-5.75 -8.1 L-5.75 -8.2 -5.15 -8.2 12.75 -8.2 11.95 -5.9 7.45 7.0 7.05 7.0 -11.05 7.0 -11.0 6.95 -5.75 -8.1 -5.15 -8.2 -5.75 -8.1" fill="#0b0000" fill-rule="evenodd" stroke="none"/>
    <path d="M-5.75 -8.1 L-5.75 -8.2 -5.15 -8.2 12.75 -8.2 11.95 -5.9 12.35 -3.0 10.15 8.75 M7.05 7.0 L-11.05 7.0 -11.0 6.95 -12.75 6.9 -12.65 6.0 Q-11.75 0.05 -7.45 -8.95 L-5.8 -8.1 -5.75 -8.1 -5.15 -8.2 M7.05 7.0 L7.45 7.0 11.95 -5.9 M-11.0 6.95 L-5.75 -8.1" fill="none" stroke="#87684e" stroke-linecap="round" stroke-linejoin="round" stroke-width="1.0"/>
  </g>
</svg>
