<?xml version="1.0" encoding="UTF-8" standalone="no"?>
<svg xmlns:ffdec="https://www.free-decompiler.com/flash" xmlns:xlink="http://www.w3.org/1999/xlink" ffdec:objectType="shape" height="6.45px" width="17.35px" xmlns="http://www.w3.org/2000/svg">
  <g transform="matrix(1.0, 0.0, 0.0, 1.0, 8.65, 3.2)">
    <path d="M8.2 1.85 L8.2 1.9 7.1 2.75 7.05 2.75 Q3.95 0.65 3.2 0.65 L1.3 0.65 -0.75 0.5 -2.7 0.0 -2.75 0.0 -6.3 0.4 -8.15 0.85 -7.95 -0.45 Q-6.55 -1.25 -5.55 -1.45 L-1.95 -2.05 Q-1.1 -2.05 0.5 -2.7 L0.55 -2.6 Q1.7 -2.05 2.6 -1.85 L4.3 -1.7 4.8 -1.85 8.2 1.85" fill="#663300" fill-rule="evenodd" stroke="none"/>
    <path d="M8.2 1.9 L7.1 2.75 M7.05 2.75 Q3.95 0.65 3.2 0.65 L1.3 0.65 -0.75 0.5 -2.7 0.0 M-2.75 0.0 L-6.3 0.4 -8.15 0.85 M-7.95 -0.45 Q-6.55 -1.25 -5.55 -1.45 L-1.95 -2.05 Q-1.1 -2.05 0.5 -2.7 M0.55 -2.6 Q1.7 -2.05 2.6 -1.85 L4.3 -1.7 4.8 -1.85 8.2 1.85" fill="none" stroke="#87684e" stroke-linecap="round" stroke-linejoin="round" stroke-width="1.0"/>
  </g>
</svg>
