<?xml version="1.0" encoding="UTF-8" standalone="no"?>
<svg xmlns:ffdec="https://www.free-decompiler.com/flash" xmlns:xlink="http://www.w3.org/1999/xlink" ffdec:objectType="shape" height="6.55px" width="18.9px" xmlns="http://www.w3.org/2000/svg">
  <g transform="matrix(1.0, 0.0, 0.0, 1.0, 9.45, 3.25)">
    <path d="M-3.1 -2.45 L0.95 -2.7 Q2.65 -2.55 5.3 -1.35 L8.95 0.5 7.25 0.75 5.0 0.0 2.9 -0.35 -0.55 -0.25 Q-2.4 -0.1 -4.35 1.35 L-5.95 2.75 -7.05 2.8 -7.8 2.75 -8.95 1.1 -8.0 0.2 -7.05 -0.65 -6.1 -1.35 Q-5.0 -2.05 -3.1 -2.45" fill="#663300" fill-rule="evenodd" stroke="none"/>
    <path d="M-3.1 -2.45 Q-5.0 -2.05 -6.1 -1.35 L-7.05 -0.65 -8.0 0.2 -8.95 1.1 -7.8 2.75 -7.05 2.8 -5.95 2.75 -4.35 1.35 Q-2.4 -0.1 -0.55 -0.25 L2.9 -0.35 5.0 0.0 7.25 0.75 8.95 0.5 5.3 -1.35 Q2.65 -2.55 0.95 -2.7 L-3.1 -2.45 Z" fill="none" stroke="#87684e" stroke-linecap="round" stroke-linejoin="round" stroke-width="1.0"/>
  </g>
</svg>
