<?xml version="1.0" encoding="UTF-8" standalone="no"?>
<svg xmlns:ffdec="https://www.free-decompiler.com/flash" xmlns:xlink="http://www.w3.org/1999/xlink" ffdec:objectType="shape" height="22.95px" width="72.7px" xmlns="http://www.w3.org/2000/svg">
  <g transform="matrix(1.0, 0.0, 0.0, 1.0, 36.35, 11.45)">
    <path d="M27.0 11.3 L15.95 9.0 13.0 7.95 Q10.75 6.5 9.9 6.3 L8.65 5.85 Q7.4 5.45 5.1 7.3 L4.05 7.95 Q2.2 8.55 -1.75 7.95 -4.7 7.55 -4.9 6.7 -5.75 4.6 -5.3 1.7 -5.1 1.05 -9.5 0.05 L-14.05 -0.8 -19.9 -3.1 -23.65 -3.3 -27.4 -2.05 Q-29.25 -1.85 -32.4 -5.4 L-34.7 -8.3 -35.3 -8.7 -36.35 -9.35 -34.7 -9.55 Q-30.75 -9.95 -27.4 -10.8 L-24.5 -11.45 -24.25 -11.45 -17.4 -10.8 -17.2 -9.55 Q-17.0 -7.7 -10.3 -4.95 L-9.5 -4.75 -2.8 -3.5 -1.75 -3.95 0.5 -4.35 Q2.2 -4.35 4.25 -3.5 L5.1 -3.5 9.9 -4.15 Q12.2 -4.55 13.0 -4.95 15.1 -5.8 15.75 -6.85 17.2 -8.3 18.85 -8.3 L20.3 -8.3 Q30.95 -7.9 33.45 -4.15 L34.05 -3.1 36.15 1.7 Q37.0 5.25 34.25 7.1 L33.45 7.75 Q32.0 9.8 31.15 10.45 29.7 11.9 27.0 11.3" fill="#ff9832" fill-rule="evenodd" stroke="none"/>
  </g>
</svg>
