<?xml version="1.0" encoding="UTF-8" standalone="no"?>
<svg xmlns:ffdec="https://www.free-decompiler.com/flash" xmlns:xlink="http://www.w3.org/1999/xlink" ffdec:objectType="shape" height="74.75px" width="81.0px" xmlns="http://www.w3.org/2000/svg">
  <g transform="matrix(1.0, 0.0, 0.0, 1.0, 60.0, 39.75)">
    <path d="M12.7 -28.6 Q16.0 -25.8 16.0 -21.0 L15.9 -19.6 16.9 -18.8 Q20.0 -16.0 20.0 -12.0 20.0 -8.85 18.05 -6.0 17.2 -4.75 16.1 -3.85 L17.9 -2.6 Q21.0 0.2 21.0 5.0 21.0 8.15 19.0 11.05 16.25 15.0 11.0 15.0 5.1 15.0 2.5 10.3 L1.95 9.15 Q1.65 11.7 0.0 14.05 L-1.2 15.5 Q0.0 17.5 0.0 20.0 0.0 23.15 -2.05 26.05 -4.8 30.0 -10.0 30.0 L-13.15 29.6 -14.05 31.05 Q-16.8 35.0 -22.0 35.0 -26.8 35.0 -29.4 32.0 L-30.0 32.0 Q-35.85 32.0 -38.45 27.3 L-38.6 27.0 -39.0 27.0 Q-44.85 27.0 -47.45 22.3 -49.0 19.55 -49.0 17.0 -49.0 14.05 -47.8 11.9 -50.15 10.7 -51.55 8.25 -52.8 5.95 -52.95 3.65 -56.6 2.7 -58.5 -0.75 -60.0 -3.45 -60.0 -6.0 -60.0 -11.15 -56.85 -13.75 -55.15 -15.15 -53.0 -15.55 L-53.0 -16.0 Q-53.0 -20.8 -49.85 -23.6 -47.05 -26.1 -43.0 -26.1 -40.35 -26.1 -38.25 -25.05 L-36.85 -26.6 Q-34.05 -29.1 -30.0 -29.1 L-26.9 -28.65 -27.0 -30.0 Q-27.0 -35.15 -23.85 -37.75 -21.1 -40.05 -17.0 -39.7 -13.0 -39.35 -10.1 -36.8 -7.55 -34.5 -7.1 -31.4 -5.45 -30.8 -4.1 -29.6 L-2.55 -27.75 -1.7 -28.6 Q1.25 -31.1 5.5 -31.1 9.75 -31.1 12.7 -28.6" fill="#cc0000" fill-rule="evenodd" stroke="none"/>
  </g>
</svg>
