<?xml version="1.0" encoding="UTF-8" standalone="no"?>
<svg xmlns:ffdec="https://www.free-decompiler.com/flash" xmlns:xlink="http://www.w3.org/1999/xlink" ffdec:objectType="shape" height="150.15px" width="254.3px" xmlns="http://www.w3.org/2000/svg">
  <g transform="matrix(1.0, 0.0, 0.0, 1.0, 374.1, 316.45)">
    <path d="M-324.15 -262.4 L-324.4 -263.2 Q-324.4 -263.85 -323.95 -263.65 L-323.15 -264.05 -322.7 -264.9 -323.15 -266.75 -332.9 -265.95 -331.65 -252.2 -329.6 -252.4 Q-327.7 -252.8 -328.55 -251.95 -329.4 -251.35 -330.65 -251.15 -331.65 -248.65 -332.9 -248.0 -333.15 -248.0 -333.15 -246.55 -333.15 -246.15 -334.6 -244.7 -335.2 -244.25 -334.8 -244.25 -334.4 -244.05 -333.95 -244.45 L-331.05 -244.7 -330.4 -237.2 -325.0 -237.6 -324.15 -238.0 -321.05 -238.65 Q-320.2 -238.65 -319.6 -240.3 L-320.4 -248.65 -317.3 -248.85 Q-316.9 -246.75 -315.2 -244.45 L-312.5 -241.75 -311.65 -241.15 -309.4 -240.1 -306.9 -239.45 -306.45 -239.25 -301.25 -239.05 -296.65 -239.9 -294.4 -240.7 Q-292.1 -241.75 -289.8 -244.05 -287.7 -246.35 -286.9 -249.05 -286.25 -252.2 -286.45 -255.3 -286.9 -259.25 -288.15 -261.35 L-288.95 -263.0 Q-289.8 -262.4 -291.25 -262.4 L-291.65 -262.6 Q-293.95 -261.95 -294.6 -261.35 L-294.6 -260.7 Q-294.6 -260.3 -296.65 -259.05 L-296.9 -259.05 -297.1 -258.65 Q-297.3 -255.3 -297.9 -254.45 L-297.9 -250.3 -298.55 -248.2 Q-298.75 -247.4 -299.8 -246.75 -300.65 -246.15 -301.65 -246.15 L-303.75 -246.35 -305.2 -247.6 -306.45 -250.5 -306.45 -259.45 -306.25 -259.7 Q-305.85 -260.7 -305.2 -261.15 -303.95 -261.95 -303.15 -261.95 -301.65 -261.95 -301.05 -261.55 L-299.8 -260.7 -299.4 -259.9 -296.65 -260.5 Q-295.2 -260.95 -295.2 -261.35 L-294.8 -262.8 Q-294.15 -263.45 -290.4 -264.05 L-290.4 -264.7 -291.45 -265.95 Q-294.15 -267.6 -296.65 -268.45 L-296.9 -268.45 -299.8 -268.85 Q-301.65 -269.05 -303.75 -268.85 L-306.45 -268.45 -309.4 -267.6 -311.65 -266.55 -312.5 -265.95 -314.6 -264.05 Q-315.85 -263.0 -316.9 -260.95 L-317.5 -258.45 -317.7 -257.2 -321.05 -256.75 -321.45 -260.5 -322.3 -261.55 -324.15 -262.4 M-338.75 -287.4 L-336.25 -289.05 Q-329.4 -293.45 -323.15 -295.95 L-322.1 -296.35 -317.5 -299.7 Q-314.6 -302.2 -312.5 -303.2 -310.85 -304.25 -309.4 -304.25 L-308.95 -304.05 -304.8 -303.2 Q-303.75 -303.0 -302.9 -303.65 -302.3 -304.25 -301.05 -303.85 L-299.8 -303.65 Q-298.35 -303.45 -297.7 -304.25 -297.3 -304.45 -296.65 -305.5 L-296.45 -305.7 Q-295.65 -306.55 -295.0 -305.5 -294.4 -304.45 -293.55 -302.4 -292.7 -300.7 -290.2 -300.95 -287.1 -301.35 -286.05 -301.75 -284.4 -302.6 -283.75 -305.3 -283.15 -307.2 -283.35 -307.4 -286.9 -309.7 -285.2 -311.55 -283.35 -313.85 -281.45 -310.95 L-280.85 -309.05 Q-280.65 -308.65 -278.75 -308.65 L-275.65 -308.2 Q-275.2 -308.2 -273.55 -309.7 -272.5 -310.5 -272.5 -312.4 L-272.5 -312.8 Q-272.5 -315.5 -271.25 -316.35 -270.0 -316.95 -266.25 -313.65 -264.15 -311.75 -263.35 -312.8 -262.3 -314.25 -260.0 -313.85 L-259.8 -313.85 Q-257.9 -313.85 -257.7 -313.45 -257.5 -313.0 -257.9 -311.75 -258.15 -310.7 -257.5 -310.5 -255.2 -309.7 -252.9 -310.1 L-249.6 -310.95 -246.9 -311.15 -245.65 -310.95 Q-241.7 -309.45 -240.65 -309.9 -239.6 -310.3 -239.2 -311.15 L-237.95 -313.0 -236.45 -312.6 Q-235.0 -312.4 -235.0 -311.95 -234.8 -311.75 -234.8 -310.5 -234.6 -309.9 -234.8 -308.65 -234.8 -308.0 -234.2 -307.4 -233.15 -305.5 -231.9 -306.15 -230.45 -306.55 -229.8 -308.2 -228.75 -310.3 -227.95 -309.7 L-223.35 -312.4 -222.5 -313.0 Q-216.25 -313.85 -221.7 -309.9 -221.9 -309.05 -221.45 -308.65 -221.05 -308.2 -218.35 -306.55 L-217.7 -305.95 Q-217.1 -305.3 -215.65 -304.9 -212.95 -304.25 -208.35 -306.95 L-207.3 -306.75 Q-206.05 -305.7 -205.85 -303.2 -205.65 -299.9 -205.2 -299.05 -205.0 -298.45 -203.75 -298.65 -201.05 -298.2 -201.25 -300.1 L-201.9 -304.05 Q-201.9 -304.7 -200.85 -305.7 -197.5 -309.45 -190.65 -313.85 L-190.45 -314.05 Q-187.1 -315.7 -182.7 -314.7 L-180.65 -313.85 Q-180.0 -313.45 -178.75 -313.0 -177.95 -312.4 -177.7 -311.55 -176.7 -306.95 -179.6 -305.7 L-182.7 -303.85 Q-186.9 -300.5 -190.45 -300.3 L-191.25 -300.3 Q-193.35 -300.5 -193.75 -297.6 L-193.75 -293.0 Q-193.75 -291.75 -194.8 -291.35 -197.3 -290.3 -200.2 -288.2 L-200.85 -287.8 -205.0 -286.15 Q-207.5 -284.9 -207.5 -284.45 L-206.9 -284.05 Q-206.7 -284.05 -204.6 -285.1 -202.5 -286.15 -201.45 -286.15 L-200.85 -286.15 Q-200.0 -286.15 -199.4 -286.95 -198.55 -287.8 -196.45 -288.2 L-190.45 -288.65 -188.75 -288.45 -187.3 -288.2 Q-186.25 -288.2 -185.85 -288.65 L-182.7 -290.7 -177.7 -290.5 -175.85 -289.7 Q-173.75 -289.25 -172.3 -290.1 L-171.05 -290.7 -170.65 -290.7 -167.95 -292.6 Q-162.5 -296.15 -160.85 -296.15 L-160.65 -296.15 Q-158.95 -296.35 -156.25 -298.0 L-154.4 -298.2 Q-153.15 -298.45 -152.5 -298.85 L-150.85 -299.7 -149.8 -301.15 Q-149.2 -301.75 -147.5 -301.75 L-146.9 -301.75 Q-145.45 -301.95 -143.15 -303.45 -141.25 -303.2 -137.7 -301.15 L-136.25 -301.15 Q-134.8 -300.95 -132.95 -301.75 L-130.0 -303.65 -128.15 -304.05 Q-123.75 -305.1 -123.35 -305.5 -121.05 -306.75 -120.0 -306.35 -119.0 -305.7 -122.5 -304.45 -124.2 -302.6 -125.0 -302.4 -126.05 -302.4 -128.15 -301.35 L-133.35 -298.65 -134.8 -297.6 -135.0 -296.55 -136.7 -292.6 Q-136.7 -292.4 -137.7 -291.75 L-138.75 -290.5 Q-139.4 -288.85 -139.6 -285.3 L-141.05 -284.9 Q-143.55 -284.05 -144.8 -284.25 L-146.9 -284.7 -147.5 -284.7 -153.55 -283.0 -160.65 -277.6 Q-164.2 -274.45 -167.95 -272.2 L-171.05 -270.5 -172.3 -270.1 -173.75 -273.65 Q-173.95 -273.45 -175.45 -274.45 L-175.85 -274.25 Q-177.5 -273.45 -177.5 -273.65 -178.15 -274.25 -176.25 -275.3 L-175.85 -275.95 -175.2 -277.6 Q-174.8 -278.2 -175.65 -279.05 L-175.65 -279.45 Q-175.45 -280.1 -175.45 -283.45 -175.45 -284.05 -175.85 -284.45 L-177.5 -283.65 Q-177.5 -281.95 -179.2 -280.7 L-179.4 -280.3 Q-182.5 -280.7 -182.5 -278.85 L-182.7 -278.65 -190.45 -278.0 -191.25 -278.0 -196.45 -257.4 -194.6 -257.6 Q-193.55 -258.0 -191.7 -259.7 L-190.45 -259.9 Q-189.4 -259.9 -190.2 -259.05 L-190.45 -258.85 Q-191.05 -258.2 -192.95 -257.4 L-195.85 -256.15 Q-197.1 -253.0 -197.7 -252.6 L-198.75 -248.45 -187.7 -249.25 -186.45 -255.7 -177.7 -256.35 -177.7 -256.15 -177.95 -255.5 Q-177.95 -254.7 -177.1 -254.7 L-175.45 -250.7 -175.85 -250.3 Q-176.7 -249.25 -176.45 -247.4 -176.45 -244.7 -176.7 -243.85 L-178.95 -236.55 Q-179.2 -235.5 -178.55 -233.85 -178.15 -232.4 -177.1 -231.75 L-172.3 -229.7 -164.4 -227.6 Q-161.05 -226.75 -160.65 -226.35 L-160.65 -225.5 -161.25 -225.1 Q-161.9 -224.7 -167.95 -225.95 L-175.2 -228.45 -175.85 -228.85 Q-177.7 -229.9 -178.75 -228.85 -179.8 -227.2 -181.05 -226.35 L-182.7 -225.5 Q-185.85 -224.25 -186.05 -223.0 L-186.05 -222.2 -194.6 -221.15 -191.05 -229.9 -191.05 -230.1 -193.55 -228.85 -195.65 -224.05 -196.25 -222.2 -197.3 -222.6 Q-198.15 -222.2 -198.15 -221.55 L-198.35 -221.55 Q-198.35 -222.4 -199.4 -222.4 -200.2 -222.2 -200.2 -221.15 L-200.85 -221.75 -201.25 -221.95 Q-202.5 -221.55 -202.1 -220.95 L-202.1 -220.7 -202.3 -220.7 -202.5 -220.95 Q-202.5 -221.75 -203.55 -221.75 -204.4 -221.75 -204.4 -220.7 L-204.2 -219.9 -204.8 -219.9 -205.85 -222.6 -209.6 -228.85 -209.6 -225.7 -207.5 -221.95 -205.65 -215.95 -205.65 -216.15 Q-205.45 -215.3 -204.6 -215.3 -203.75 -215.3 -203.75 -215.95 -203.75 -215.1 -202.7 -215.1 -201.9 -215.3 -201.9 -216.15 L-201.7 -216.15 -201.7 -215.95 Q-201.7 -215.1 -200.85 -215.1 L-200.65 -215.1 Q-199.4 -215.1 -199.8 -216.15 L-199.6 -216.15 Q-199.2 -215.3 -198.35 -215.3 -197.5 -215.3 -197.5 -216.35 L-197.5 -216.55 Q-198.55 -219.7 -197.7 -219.7 L-197.3 -216.75 -197.3 -216.55 -196.45 -209.7 -195.85 -208.65 Q-197.5 -203.25 -197.95 -200.5 L-205.2 -199.05 -217.7 -199.5 -218.55 -199.25 -226.25 -198.45 -225.2 -203.25 -225.2 -203.65 -226.25 -205.95 Q-226.25 -205.1 -226.7 -204.25 L-227.7 -199.25 -228.35 -199.5 Q-229.4 -199.5 -228.95 -198.65 L-228.95 -197.8 -229.2 -198.65 Q-229.2 -199.25 -230.2 -199.25 -230.85 -199.25 -230.85 -198.25 -230.85 -198.85 -231.7 -198.85 L-231.9 -198.85 Q-232.5 -198.85 -232.5 -198.0 L-232.3 -197.2 -232.5 -197.0 -232.5 -197.2 -232.7 -198.0 Q-232.7 -198.85 -233.55 -198.85 -234.4 -198.65 -234.4 -197.8 L-234.2 -197.2 -235.0 -197.2 -235.85 -198.85 -239.4 -204.25 -240.65 -205.5 -240.45 -203.45 -240.2 -202.4 -236.9 -197.4 -249.6 -196.75 -258.95 -195.1 -259.15 -195.1 -260.0 -195.3 Q-268.35 -195.75 -272.5 -195.5 L-272.9 -195.5 -281.25 -194.25 -280.2 -198.45 -280.4 -199.7 -281.05 -201.75 -281.45 -200.1 -281.65 -199.7 -282.9 -194.7 Q-283.15 -195.1 -283.75 -195.1 -284.4 -194.7 -284.4 -194.05 L-284.15 -193.65 -284.4 -193.65 -284.6 -194.05 Q-284.6 -194.9 -285.4 -194.9 L-286.25 -194.05 Q-286.25 -194.9 -287.3 -194.9 -287.9 -194.5 -287.9 -193.85 L-287.9 -193.45 Q-288.35 -194.25 -288.95 -194.05 -289.6 -194.05 -289.6 -193.45 L-290.0 -193.45 -291.05 -198.45 -293.15 -200.1 Q-292.7 -199.25 -292.7 -197.8 L-291.65 -193.45 -300.0 -193.45 -313.35 -191.15 -323.15 -191.55 -327.1 -191.35 -329.4 -192.2 -330.65 -192.4 Q-331.25 -193.0 -331.65 -194.7 -331.25 -196.75 -332.1 -197.2 L-333.15 -197.4 -333.35 -197.6 Q-333.95 -198.0 -334.4 -197.2 L-340.2 -196.15 Q-343.35 -195.95 -338.95 -197.8 -333.15 -200.3 -333.15 -200.75 -333.15 -201.55 -332.5 -202.6 -331.45 -203.85 -330.0 -203.85 -329.15 -203.85 -325.2 -206.35 L-324.6 -203.25 -323.15 -202.0 -322.1 -201.35 -323.15 -205.75 -323.15 -207.6 -319.8 -209.5 -312.5 -209.5 -299.8 -211.35 -297.3 -212.0 -297.1 -212.0 -296.65 -212.2 -294.6 -212.6 Q-293.55 -213.0 -293.95 -212.6 -294.8 -212.6 -295.0 -212.2 L-295.65 -212.0 -281.45 -211.35 -272.5 -212.6 -272.3 -212.6 -271.65 -212.8 Q-271.25 -212.8 -271.05 -212.2 L-270.65 -211.15 -270.4 -211.15 Q-270.0 -210.75 -269.6 -210.95 -268.75 -211.35 -268.95 -212.0 L-268.75 -212.0 -268.75 -211.75 Q-268.35 -210.5 -267.7 -210.95 -266.45 -210.95 -266.9 -212.0 L-266.65 -212.0 Q-266.65 -211.15 -265.65 -211.15 -264.8 -211.15 -264.8 -212.2 L-264.8 -212.4 -264.6 -212.4 Q-264.6 -211.55 -263.55 -211.55 -262.7 -211.55 -262.7 -212.6 L-262.7 -213.0 -262.5 -213.25 Q-261.65 -209.9 -260.0 -207.4 L-259.15 -205.95 -258.95 -205.75 -256.9 -202.8 -256.9 -205.75 -257.3 -206.75 -257.5 -206.75 -260.0 -211.75 -260.0 -213.45 Q-254.8 -213.0 -249.6 -213.45 L-245.65 -213.65 -233.55 -215.5 -233.35 -215.7 -231.05 -216.15 Q-229.8 -216.75 -230.45 -215.95 L-231.45 -215.5 -223.35 -215.1 Q-220.45 -214.7 -217.7 -215.1 L-208.35 -216.15 -207.95 -216.35 Q-207.3 -216.35 -206.05 -216.95 L-207.3 -219.9 -207.5 -220.1 -217.95 -220.3 -231.9 -218.45 -233.55 -218.0 -245.65 -218.85 -249.8 -218.65 -259.4 -217.4 -259.15 -217.8 -257.9 -222.2 Q-258.35 -224.45 -259.15 -225.1 L-261.25 -217.6 Q-261.45 -218.45 -262.3 -218.45 -263.55 -218.45 -263.15 -217.4 L-263.15 -217.2 -263.35 -217.2 -263.55 -217.4 Q-263.55 -218.2 -264.6 -218.2 -265.4 -218.2 -265.4 -217.4 -265.85 -218.45 -266.65 -218.2 -267.5 -218.2 -267.5 -217.2 L-267.3 -216.75 -267.5 -216.55 -267.5 -216.75 Q-267.9 -217.6 -268.75 -217.6 -269.4 -217.2 -269.4 -216.55 L-269.8 -216.55 -270.85 -225.1 -272.9 -227.8 -271.65 -216.75 -272.5 -216.75 Q-276.9 -217.2 -281.45 -216.75 L-281.65 -216.75 Q-286.65 -216.55 -296.65 -214.5 L-313.75 -215.1 -323.15 -213.85 -323.15 -214.25 -319.4 -221.95 -322.5 -220.3 -324.4 -216.55 -325.0 -214.9 Q-325.2 -215.5 -326.05 -215.5 -326.65 -215.3 -326.9 -214.5 L-327.1 -214.5 Q-327.5 -215.3 -328.15 -215.1 -328.95 -215.1 -328.95 -214.05 -328.95 -215.1 -330.0 -214.7 -331.25 -214.7 -330.85 -213.65 L-331.05 -213.65 -331.25 -213.85 Q-331.25 -214.7 -332.3 -214.7 -333.15 -214.25 -333.15 -213.65 L-332.9 -213.0 -333.15 -213.0 -336.05 -222.6 -338.75 -224.05 -335.2 -213.0 Q-339.6 -213.65 -345.2 -213.25 L-357.5 -212.4 -358.75 -212.2 -358.35 -213.25 -357.5 -214.7 -356.45 -215.5 -356.25 -216.95 Q-355.85 -220.3 -355.2 -221.75 -352.5 -224.45 -352.3 -225.5 L-351.9 -227.4 Q-351.45 -229.25 -353.75 -230.7 -355.85 -231.75 -354.8 -233.65 -354.6 -234.05 -353.75 -233.65 L-350.2 -234.7 -349.4 -235.5 -342.7 -236.15 -344.4 -256.35 -334.6 -257.2 -335.4 -265.7 -340.2 -265.3 Q-344.15 -265.1 -343.75 -264.7 -341.25 -263.45 -341.25 -262.6 -341.25 -262.2 -342.3 -261.95 -343.55 -261.95 -344.6 -263.0 L-345.2 -263.2 Q-350.4 -263.85 -350.4 -264.25 L-357.3 -263.85 Q-356.05 -266.15 -357.5 -267.6 -358.75 -269.45 -364.35 -270.7 L-367.5 -271.75 Q-369.35 -272.8 -369.15 -274.45 L-368.55 -278.0 -367.5 -278.45 Q-365.6 -279.05 -363.35 -278.45 -359.8 -276.95 -358.75 -276.75 L-356.45 -274.25 Q-355.85 -274.05 -355.85 -276.75 -355.85 -277.4 -356.85 -278.2 -357.5 -278.85 -357.3 -279.9 -356.65 -283.45 -352.5 -282.6 -351.05 -282.2 -350.85 -281.15 L-350.65 -278.65 Q-350.4 -276.75 -349.15 -278.45 L-347.9 -280.95 -345.2 -283.45 -338.75 -287.4 M-367.5 -212.2 L-365.85 -211.35 -367.5 -211.15 -369.35 -211.15 -371.65 -211.55 Q-378.1 -216.75 -367.5 -212.2 M-361.65 -205.5 L-364.35 -208.0 -361.25 -207.8 -357.5 -207.6 -345.0 -207.6 -335.85 -208.85 -335.2 -209.5 -335.2 -210.75 Q-334.8 -212.0 -334.8 -210.5 -334.8 -209.5 -334.4 -208.85 L-333.95 -208.25 -333.35 -208.0 Q-332.5 -208.45 -332.5 -208.85 -332.5 -208.0 -331.45 -208.0 -330.0 -208.0 -330.65 -209.05 L-330.4 -209.05 -330.4 -208.85 Q-330.4 -207.4 -329.4 -208.0 -328.55 -208.0 -328.55 -208.65 L-328.15 -208.85 Q-328.15 -208.25 -327.1 -208.25 -326.25 -208.25 -326.25 -209.25 L-326.25 -209.5 -326.05 -209.5 -325.85 -208.45 -329.4 -207.0 Q-330.85 -205.75 -334.8 -204.7 L-334.15 -207.6 -335.85 -208.25 -336.9 -204.25 -337.1 -204.05 Q-338.35 -203.85 -339.6 -202.2 -340.4 -200.95 -341.65 -201.15 -343.15 -201.35 -345.2 -200.5 L-347.5 -200.3 Q-352.3 -200.95 -353.55 -201.55 -354.6 -202.0 -355.65 -203.45 -356.65 -204.9 -357.3 -204.9 L-357.5 -204.9 Q-360.85 -204.9 -361.65 -205.5 M-355.85 -210.1 L-338.15 -210.95 -345.2 -210.1 Q-350.4 -209.7 -355.85 -210.1 M-324.15 -189.5 L-321.9 -189.5 -322.1 -189.25 -323.15 -189.05 -324.15 -189.05 -324.15 -189.5 M-324.6 -186.75 L-323.15 -187.0 -322.5 -187.2 -323.15 -185.3 -323.95 -184.5 Q-325.4 -183.65 -325.4 -184.5 -324.8 -185.75 -324.6 -186.75 M-355.2 -189.5 L-359.8 -188.85 -359.6 -189.9 Q-359.6 -192.0 -359.15 -192.0 L-357.5 -191.75 Q-354.8 -190.95 -355.2 -189.5 M-149.8 -272.4 L-150.45 -271.15 Q-150.45 -269.45 -150.85 -269.25 -151.7 -269.7 -152.1 -269.45 -152.1 -268.2 -152.5 -268.0 -157.3 -265.1 -158.55 -262.2 -160.2 -258.65 -160.65 -258.45 -161.9 -258.45 -164.6 -257.2 -164.6 -255.95 -165.0 -255.7 -165.2 -255.5 -165.85 -255.95 L-171.45 -268.2 -171.05 -268.45 Q-170.0 -268.85 -167.95 -270.3 L-166.05 -270.7 Q-164.4 -270.7 -160.65 -271.95 -152.95 -274.7 -150.0 -273.2 -149.6 -273.0 -149.8 -272.4 M-213.75 -299.25 L-215.65 -299.25 Q-216.25 -299.25 -216.7 -298.85 L-217.7 -298.0 Q-219.05 -297.25 -220.45 -296.55 -221.25 -295.95 -221.05 -295.5 L-220.65 -294.45 Q-220.65 -292.4 -217.7 -293.85 L-217.3 -294.05 Q-216.7 -294.45 -216.05 -294.05 L-215.65 -294.05 -212.3 -296.55 Q-212.1 -296.55 -212.1 -298.65 -211.9 -299.9 -212.3 -299.9 -213.15 -299.25 -213.75 -299.25 M-167.95 -299.05 Q-168.55 -298.65 -171.05 -297.6 L-172.3 -297.4 Q-173.75 -297.2 -175.85 -295.95 -177.95 -294.45 -178.75 -294.25 -180.0 -293.85 -181.05 -295.3 -182.1 -296.95 -175.85 -299.7 L-167.95 -302.6 -165.85 -303.0 Q-163.55 -302.8 -164.6 -301.55 -165.2 -300.5 -167.95 -299.05 M-295.2 -312.2 L-296.05 -308.0 Q-296.05 -306.75 -296.65 -307.4 -297.3 -307.6 -297.9 -308.65 -298.55 -309.7 -298.35 -310.7 -297.9 -312.2 -296.65 -312.8 -295.0 -313.65 -295.2 -312.2 M-264.4 -270.1 Q-265.65 -270.1 -264.4 -271.35 -266.05 -271.75 -267.9 -271.35 L-281.45 -270.3 -281.9 -270.3 Q-282.3 -269.45 -282.7 -269.25 -283.35 -269.05 -283.35 -268.65 L-284.15 -267.6 -284.6 -267.4 -282.9 -249.05 -279.8 -250.3 Q-277.7 -250.3 -277.1 -250.95 L-275.2 -251.75 Q-271.9 -253.45 -273.55 -251.75 L-275.2 -250.95 Q-278.95 -248.65 -280.85 -248.2 L-281.45 -247.6 -282.7 -245.7 -282.3 -241.35 -281.45 -241.35 -272.5 -242.2 -271.25 -242.2 -272.1 -250.5 -266.05 -250.95 Q-263.75 -251.15 -261.45 -251.95 L-260.0 -252.6 -258.15 -253.85 Q-256.9 -254.9 -255.85 -256.55 L-254.8 -259.25 -254.6 -262.2 -255.2 -264.45 -256.25 -265.3 Q-256.65 -265.3 -256.65 -266.75 L-257.1 -267.4 -256.9 -267.8 -257.1 -267.8 Q-258.35 -269.25 -259.6 -269.9 L-260.0 -270.1 -262.1 -270.95 -262.1 -270.5 -263.55 -270.3 -264.4 -270.1 M-245.65 -273.0 L-246.05 -272.8 -248.55 -271.95 -250.65 -270.5 -251.9 -268.2 -252.3 -265.95 -250.65 -264.9 -250.85 -263.45 -250.0 -262.2 Q-249.6 -261.35 -251.05 -261.55 L-249.8 -260.1 -249.6 -260.1 Q-248.55 -259.05 -247.5 -258.85 L-245.65 -258.2 -244.8 -258.2 -245.0 -257.6 Q-244.8 -256.95 -245.2 -256.95 L-245.65 -256.75 Q-248.55 -255.1 -249.15 -253.65 L-249.6 -253.2 Q-250.0 -252.8 -250.0 -252.4 L-250.4 -249.7 -249.6 -249.7 -249.6 -249.45 -249.8 -248.85 -250.2 -248.45 -250.2 -247.2 Q-250.2 -246.95 -250.85 -246.95 L-251.25 -243.85 -247.5 -244.25 -246.05 -244.45 -245.65 -244.45 Q-244.6 -244.7 -242.95 -245.3 -240.85 -245.3 -240.45 -246.15 L-239.6 -246.75 -239.4 -252.2 -238.95 -253.65 -237.95 -254.7 -236.9 -255.1 -236.05 -255.3 -233.55 -255.5 -232.7 -245.5 -231.9 -245.5 -223.35 -246.35 -221.7 -246.35 -222.1 -252.4 Q-222.5 -252.6 -222.7 -253.45 L-222.95 -254.25 Q-222.5 -254.45 -223.35 -255.7 L-224.2 -256.35 Q-225.0 -256.35 -225.0 -256.95 L-224.4 -258.45 Q-223.75 -258.85 -224.2 -260.1 L-223.35 -260.95 -222.95 -261.55 -223.95 -274.25 -227.3 -274.25 -229.2 -273.2 Q-230.0 -272.6 -230.65 -273.85 L-233.75 -273.85 -235.85 -274.05 -243.55 -273.45 -245.65 -273.0 M-266.05 -262.6 L-265.85 -261.35 Q-265.65 -260.7 -266.05 -259.45 -266.45 -258.65 -266.9 -258.45 L-268.15 -257.8 -269.4 -257.4 -270.4 -257.4 -272.5 -257.2 -272.9 -257.2 -273.55 -264.25 -272.5 -264.25 -271.05 -264.45 -268.55 -264.25 -266.9 -263.65 -266.05 -262.6 M-262.3 -264.05 Q-261.9 -264.7 -260.85 -264.45 L-260.0 -264.9 -259.15 -265.1 Q-258.75 -263.85 -257.9 -263.2 -256.9 -263.0 -257.5 -262.4 L-259.8 -262.4 -260.0 -262.2 Q-260.65 -261.75 -261.05 -261.95 -263.35 -261.95 -262.3 -264.05 M-296.65 -278.0 L-296.25 -278.65 Q-296.25 -279.9 -296.65 -280.3 -297.3 -280.7 -298.35 -280.3 -299.6 -279.9 -299.8 -278.85 L-300.0 -278.0 -299.8 -277.4 Q-299.4 -276.95 -298.35 -277.2 -297.3 -277.4 -296.65 -278.0 M-312.5 -244.45 Q-313.55 -244.45 -313.95 -244.9 -315.4 -246.35 -314.6 -246.35 -313.35 -246.35 -312.5 -246.95 L-312.1 -247.4 Q-311.45 -248.0 -311.05 -247.8 -310.65 -247.4 -310.65 -246.55 -309.8 -245.1 -310.4 -244.9 L-312.5 -244.45 M-305.4 -222.8 L-305.2 -223.65 -305.2 -224.25 -306.25 -224.25 -307.5 -223.0 Q-307.9 -222.8 -306.65 -222.8 L-305.4 -222.8 M-310.85 -212.8 L-306.45 -212.6 -312.3 -212.0 -310.85 -212.8 M-316.65 -211.75 L-320.4 -212.0 -314.8 -212.6 -316.65 -211.75 M-323.15 -209.25 L-323.95 -209.05 -324.15 -209.7 -322.3 -209.7 Q-322.7 -209.45 -323.15 -209.25 M-311.65 -198.25 L-312.5 -198.25 Q-314.6 -197.8 -315.2 -197.0 L-315.85 -196.35 -316.9 -194.05 Q-316.45 -193.0 -316.05 -193.25 -315.65 -193.45 -314.6 -194.5 -313.75 -195.3 -312.9 -195.3 L-312.5 -195.3 Q-310.65 -194.9 -310.4 -195.3 -310.0 -195.95 -310.4 -196.35 -311.05 -197.0 -311.05 -197.4 L-311.65 -198.25 M-272.3 -212.4 L-273.15 -209.05 -274.15 -206.55 -274.15 -203.45 -272.7 -205.1 -270.65 -210.5 -270.85 -210.75 Q-271.45 -211.75 -272.1 -212.2 L-272.3 -212.4 M-281.45 -213.85 L-281.65 -213.85 Q-284.4 -213.45 -287.5 -213.85 L-275.65 -214.5 -281.45 -213.85 M-245.65 -216.35 L-245.65 -216.15 -249.6 -215.7 -255.4 -215.7 -249.6 -216.35 -245.65 -216.35 M-200.85 -275.7 L-200.65 -276.95 -200.45 -277.2 -200.85 -277.2 -215.2 -275.95 -215.65 -275.5 -216.25 -275.3 Q-217.1 -275.5 -217.7 -273.45 -217.95 -273.0 -218.55 -273.0 L-219.8 -271.95 -217.7 -249.45 -217.7 -249.25 -214.2 -250.1 Q-212.95 -251.15 -212.5 -250.3 L-215.65 -248.65 -217.1 -246.75 -206.45 -247.8 -207.5 -259.25 -207.95 -259.45 -210.2 -259.45 -209.6 -260.1 -208.35 -260.95 -208.15 -261.35 Q-207.95 -261.95 -208.35 -263.2 -208.75 -264.45 -208.55 -265.1 L-208.35 -265.7 -208.15 -265.95 -208.35 -267.8 -208.35 -268.2 -195.85 -269.25 -196.25 -273.65 Q-197.7 -273.85 -198.35 -272.8 L-200.0 -273.2 -201.9 -273.2 Q-202.5 -273.2 -202.7 -274.05 L-202.95 -275.1 Q-202.7 -275.3 -202.1 -275.1 -201.45 -274.9 -201.05 -275.5 L-200.85 -275.7 M-183.35 -271.75 L-179.6 -263.0 -185.65 -262.6 -183.55 -271.75 -183.35 -271.75 M-170.65 -261.35 Q-170.0 -260.7 -170.65 -259.45 L-171.05 -259.25 -172.3 -259.25 Q-172.95 -259.25 -173.75 -260.1 -174.4 -260.7 -172.3 -261.95 -171.45 -261.95 -171.05 -261.55 L-170.65 -261.35 M-231.9 -261.75 L-232.95 -261.55 -233.15 -261.15 Q-233.75 -260.5 -235.45 -260.5 -235.85 -260.5 -235.85 -261.55 L-236.25 -261.55 -237.1 -261.35 -239.4 -261.75 -240.45 -262.8 Q-240.65 -262.8 -241.05 -264.25 L-240.85 -265.7 -240.0 -266.55 -238.95 -267.2 -237.95 -267.6 -233.95 -267.8 -233.55 -262.8 -232.95 -262.8 -231.9 -263.45 Q-231.05 -263.45 -231.05 -263.0 -231.05 -261.95 -231.9 -261.75 M-207.95 -215.7 L-210.65 -211.15 -210.65 -208.25 -208.35 -211.15 -207.7 -211.75 -206.05 -215.1 Q-205.85 -215.5 -206.05 -216.15 L-207.5 -215.95 -207.95 -215.7 M-222.5 -217.4 L-215.65 -217.8 -215.65 -217.6 -217.7 -217.4 -222.5 -217.4 M-192.3 -213.65 L-194.8 -212.0 -195.45 -216.75 -195.45 -216.95 -185.45 -216.75 Q-185.45 -215.3 -186.25 -214.5 -187.1 -213.85 -190.45 -213.85 L-191.05 -213.85 -192.3 -213.65 M-197.7 -208.25 Q-197.5 -208.45 -198.55 -209.05 L-199.6 -208.85 -200.45 -208.0 -200.85 -207.8 Q-204.8 -206.55 -203.95 -206.15 L-200.85 -206.35 -200.0 -206.35 Q-199.6 -206.35 -198.55 -207.4 L-197.7 -208.25 M-183.55 -210.3 Q-184.8 -211.75 -182.7 -213.0 -180.2 -214.25 -178.95 -212.2 -177.95 -210.95 -179.6 -209.9 -181.05 -208.85 -182.7 -209.7 L-183.55 -210.3 M-167.95 -197.4 Q-166.45 -199.05 -166.25 -198.25 -165.65 -196.35 -167.95 -192.8 L-168.15 -192.2 Q-168.35 -191.75 -168.75 -192.0 L-169.6 -192.6 -168.95 -195.3 -167.95 -197.4 M-215.65 -197.2 L-215.65 -197.4 -213.95 -197.4 -215.65 -197.2 M-222.7 -193.65 L-223.35 -193.0 -225.65 -191.55 -226.45 -194.7 -220.2 -194.7 -222.7 -193.65 M-232.1 -194.9 L-231.9 -193.85 -231.9 -193.45 -231.05 -193.0 Q-230.2 -193.0 -230.2 -194.05 -229.8 -193.25 -229.2 -193.25 -228.35 -193.65 -228.55 -194.25 L-228.55 -194.7 -228.35 -194.7 -227.7 -192.4 -227.1 -190.95 -230.0 -190.1 Q-230.2 -189.9 -231.9 -190.5 L-232.7 -190.75 -236.45 -189.9 -235.2 -193.65 Q-235.2 -192.8 -234.4 -193.25 L-233.75 -193.65 Q-233.75 -193.0 -232.7 -193.0 -232.1 -193.25 -232.1 -194.05 L-232.3 -194.9 -232.1 -194.9 M-240.65 -190.1 Q-242.95 -188.65 -243.75 -188.65 -245.2 -188.85 -245.65 -188.25 -246.25 -187.2 -246.65 -184.9 -247.5 -180.95 -249.6 -180.95 L-250.85 -181.55 Q-251.65 -182.2 -252.5 -184.05 -252.9 -185.5 -254.4 -185.95 L-261.65 -181.75 -262.9 -182.0 Q-263.95 -182.6 -264.4 -182.2 -267.3 -180.3 -272.5 -179.05 -277.7 -178.0 -281.45 -178.25 L-282.9 -178.25 Q-283.95 -178.45 -283.95 -176.35 -284.4 -174.05 -284.15 -169.25 -284.6 -167.2 -285.4 -166.55 -286.45 -165.75 -286.9 -167.6 -288.75 -174.05 -288.95 -174.25 -291.05 -174.9 -292.5 -176.75 -292.7 -179.5 -294.8 -179.9 L-296.65 -180.5 -299.8 -182.0 Q-304.6 -184.05 -306.45 -184.5 L-307.9 -184.5 Q-308.75 -184.5 -309.4 -183.45 -310.2 -181.75 -311.45 -182.0 L-312.1 -182.2 -312.5 -182.2 Q-313.35 -182.4 -313.95 -183.65 -314.6 -184.9 -315.85 -185.1 -316.9 -185.1 -317.5 -186.15 L-319.15 -187.8 -317.5 -188.0 -313.35 -189.05 -299.8 -188.65 -299.8 -188.85 -296.65 -189.05 -291.9 -189.9 Q-292.1 -188.65 -293.55 -183.85 L-293.95 -182.2 -291.9 -183.45 -290.4 -188.65 -289.6 -188.45 Q-288.75 -188.85 -289.15 -189.5 L-289.4 -190.3 -289.15 -190.3 -288.95 -189.25 Q-288.95 -188.45 -287.9 -188.45 -287.3 -188.65 -287.3 -189.5 -286.9 -188.65 -286.25 -188.85 -285.65 -188.85 -285.65 -189.7 L-285.85 -190.95 -285.65 -190.95 -285.4 -189.9 Q-285.4 -189.05 -284.6 -189.05 -283.75 -189.25 -283.75 -190.1 L-283.95 -190.95 -283.55 -190.95 -281.45 -184.5 -280.85 -183.45 -278.75 -182.6 -281.05 -187.8 -281.45 -189.5 -281.45 -190.75 -272.5 -190.95 Q-268.35 -191.15 -260.0 -192.8 L-258.95 -193.0 -249.6 -192.6 -236.9 -194.05 -238.35 -189.7 -239.2 -189.9 -240.65 -190.1 M-245.65 -195.1 L-245.65 -194.9 -249.15 -194.7 -245.65 -195.1 M-272.5 -193.0 L-277.3 -192.8 -272.7 -193.45 -272.5 -193.45 -272.5 -193.0 M-299.8 -191.35 L-299.8 -190.95 -304.6 -190.75 -300.0 -191.35 -299.8 -191.35 M-318.95 -169.25 Q-319.8 -170.5 -318.55 -171.35 L-317.5 -171.55 Q-316.65 -171.55 -316.45 -170.95 -316.05 -169.5 -317.1 -168.85 L-317.5 -168.65 Q-318.55 -168.65 -318.95 -169.25" fill="#ff9832" fill-rule="evenodd" stroke="none"/>
  </g>
</svg>
