<?xml version="1.0" encoding="UTF-8" standalone="no"?>
<svg xmlns:ffdec="https://www.free-decompiler.com/flash" xmlns:xlink="http://www.w3.org/1999/xlink" ffdec:objectType="shape" height="13.95px" width="8.6px" xmlns="http://www.w3.org/2000/svg">
  <g transform="matrix(1.0, 0.0, 0.0, 1.0, 4.3, 6.95)">
    <path d="M-0.95 -3.0 L-1.4 -5.05 Q-1.8 -6.1 -1.15 -6.5 L0.5 -6.95 1.75 -6.95 Q3.2 -6.75 3.85 -5.5 4.45 -4.25 4.25 -3.2 L3.6 -0.7 2.8 2.85 1.75 4.75 0.5 6.0 -0.15 6.4 Q-1.15 6.8 -0.95 7.0 L-2.2 6.6 -3.05 6.6 Q-4.1 6.6 -4.3 6.2 L-4.1 4.95 -3.65 2.85 -3.05 2.0 -1.6 0.35 -0.95 -3.0" fill="#ff9832" fill-rule="evenodd" stroke="none"/>
  </g>
</svg>
