<?xml version="1.0" encoding="UTF-8" standalone="no"?>
<svg xmlns:ffdec="https://www.free-decompiler.com/flash" xmlns:xlink="http://www.w3.org/1999/xlink" ffdec:objectType="shape" height="15.55px" width="36.35px" xmlns="http://www.w3.org/2000/svg">
  <g transform="matrix(1.0, 0.0, 0.0, 1.0, 18.15, 7.75)">
    <path d="M13.35 -3.4 L15.65 -3.15 Q16.5 -2.95 15.25 -1.1 13.8 0.35 14.4 1.0 L16.7 3.1 Q17.35 3.7 18.15 5.8 18.35 6.4 17.95 7.05 L16.9 7.65 16.7 7.65 9.85 7.25 8.8 6.0 7.55 3.1 Q7.1 2.05 5.45 1.85 L2.1 1.4 Q0.25 1.4 -1.65 0.8 -3.5 -0.65 -6.0 -1.3 -7.45 -1.5 -8.3 -0.65 -9.55 0.15 -10.6 -0.05 L-15.4 -1.1 -15.8 -1.1 Q-16.85 -1.5 -17.65 -2.75 -18.3 -4.2 -18.1 -5.25 -17.65 -6.5 -15.8 -6.1 L-8.3 -5.25 -8.1 -5.25 Q-7.05 -5.05 -6.85 -5.25 L-5.8 -6.3 Q-5.4 -6.5 -4.35 -5.9 -2.45 -6.9 2.1 -6.5 L2.75 -6.5 Q3.6 -6.5 4.4 -7.75 8.15 -7.95 8.35 -6.5 L7.95 -4.0 Q8.15 -3.6 9.85 -3.6 L10.65 -3.6 13.35 -3.4" fill="#ff9832" fill-rule="evenodd" stroke="none"/>
  </g>
</svg>
