<?xml version="1.0" encoding="UTF-8" standalone="no"?>
<svg xmlns:ffdec="https://www.free-decompiler.com/flash" xmlns:xlink="http://www.w3.org/1999/xlink" ffdec:objectType="shape" height="20.85px" width="19.15px" xmlns="http://www.w3.org/2000/svg">
  <g transform="matrix(1.0, 0.0, 0.0, 1.0, 9.55, 10.4)">
    <path d="M6.1 3.35 Q6.5 3.15 7.55 5.0 9.4 4.2 9.6 4.8 9.6 5.2 7.75 6.05 L6.5 7.3 Q6.3 7.7 6.5 8.95 L2.75 10.2 2.35 10.45 1.9 10.45 Q0.45 10.2 -1.2 8.95 L-5.6 5.85 -7.25 5.65 -7.65 5.45 Q-10.15 3.95 -9.35 -0.6 -8.9 -2.7 -7.25 -5.2 L-4.75 -8.75 -4.1 -9.8 4.85 -10.4 6.1 3.35" fill="#ff9832" fill-rule="evenodd" stroke="none"/>
  </g>
</svg>
