<?xml version="1.0" encoding="UTF-8" standalone="no"?>
<svg xmlns:ffdec="https://www.free-decompiler.com/flash" xmlns:xlink="http://www.w3.org/1999/xlink" ffdec:objectType="shape" height="57.05px" width="49.1px" xmlns="http://www.w3.org/2000/svg">
  <g transform="matrix(1.0, 0.0, 0.0, 1.0, -105.1, -85.4)">
    <path d="M107.05 92.55 L122.8 92.55 122.8 87.3 Q122.8 85.4 124.75 85.4 L134.55 85.4 Q136.5 85.4 136.5 87.3 L136.5 92.55 152.3 92.55 Q154.2 92.55 154.2 94.45 L154.2 134.1 Q154.2 136.0 152.3 136.0 L136.5 136.0 136.5 140.5 Q136.5 142.45 134.55 142.45 L124.75 142.45 Q122.8 142.45 122.8 140.5 L122.8 136.0 107.05 136.0 Q105.1 136.0 105.1 134.1 L105.1 94.45 Q105.1 92.55 107.05 92.55 M136.2 104.45 L136.2 124.1 141.35 124.1 141.35 104.45 136.2 104.45 M123.4 104.45 L117.95 104.45 117.95 124.1 123.4 124.1 123.4 104.45" fill="#ffffff" fill-rule="evenodd" stroke="none"/>
  </g>
</svg>
