<?xml version="1.0" encoding="UTF-8" standalone="no"?>
<svg xmlns:ffdec="https://www.free-decompiler.com/flash" xmlns:xlink="http://www.w3.org/1999/xlink" ffdec:objectType="shape" height="21.7px" width="10.85px" xmlns="http://www.w3.org/2000/svg">
  <g transform="matrix(1.0, 0.0, 0.0, 1.0, 5.4, 10.85)">
    <path d="M-3.7 10.6 L-4.35 10.85 -5.15 10.4 Q-5.6 9.6 -5.15 7.5 -4.35 4.35 -4.15 0.6 L-3.3 -2.1 -3.1 -3.35 Q-1.4 -4.8 -1.0 -5.85 L-0.4 -7.5 Q0.85 -11.65 2.75 -10.65 3.35 -10.2 2.35 -8.95 1.1 -7.3 1.3 -6.65 1.7 -6.05 3.35 -6.05 5.05 -5.85 5.25 -5.4 L5.25 -5.2 Q5.65 -4.15 5.25 -1.45 L4.0 0.85 Q3.6 1.45 1.7 1.65 0.05 1.65 -0.4 2.3 L-0.6 2.3 Q-1.65 4.15 -2.45 6.65 -3.1 9.35 -3.7 10.6" fill="#ff9832" fill-rule="evenodd" stroke="none"/>
  </g>
</svg>
