<?xml version="1.0" encoding="UTF-8" standalone="no"?>
<svg xmlns:ffdec="https://www.free-decompiler.com/flash" xmlns:xlink="http://www.w3.org/1999/xlink" ffdec:objectType="shape" height="21.1px" width="14.75px" xmlns="http://www.w3.org/2000/svg">
  <g transform="matrix(1.0, 0.0, 0.0, 1.0, 7.35, 10.55)">
    <path d="M-6.95 -5.05 Q-7.35 -6.75 -7.35 -8.0 -7.35 -10.9 -5.9 -10.5 -4.25 -10.3 -3.8 -8.8 L-3.2 -5.7 -3.6 -3.6 Q-2.35 -0.3 0.75 2.65 L3.05 4.9 Q3.7 5.75 6.4 5.75 L7.0 6.4 Q8.05 7.65 6.4 9.7 L5.85 10.1 3.25 10.55 0.75 10.15 0.7 10.1 0.55 9.9 Q-1.95 10.15 -2.75 9.3 -3.2 9.1 -4.0 5.35 -4.65 3.25 -6.1 0.75 -6.3 0.35 -5.9 -0.5 L-5.5 -1.95 Q-6.75 -4.05 -6.95 -5.05" fill="#ff9832" fill-rule="evenodd" stroke="none"/>
  </g>
</svg>
