<?xml version="1.0" encoding="UTF-8" standalone="no"?>
<svg xmlns:ffdec="https://www.free-decompiler.com/flash" xmlns:xlink="http://www.w3.org/1999/xlink" ffdec:objectType="shape" height="19.65px" width="30.85px" xmlns="http://www.w3.org/2000/svg">
  <g transform="matrix(1.0, 0.0, 0.0, 1.0, 15.4, 9.85)">
    <path d="M-15.4 1.45 L-15.2 0.0 Q-14.75 -1.45 -12.5 -1.85 L-9.15 -1.65 Q-7.05 -1.45 -6.45 -2.7 -5.8 -2.9 -3.1 -1.85 -0.6 -0.8 0.0 -2.05 L1.25 -3.3 Q5.65 -7.3 8.95 -7.3 L9.8 -8.1 Q13.15 -10.8 15.45 -9.35 L15.45 -7.5 13.95 -6.45 Q11.25 -5.4 9.8 -3.3 8.75 -2.05 5.85 3.55 3.55 7.95 1.45 9.2 L1.25 9.4 Q-0.4 10.2 -1.45 9.4 -2.05 9.2 -1.05 8.15 L-0.8 7.95 -0.8 7.7 -0.6 7.3 -0.6 6.9 0.0 5.0 Q0.45 4.2 -0.6 3.15 L-4.35 3.95 Q-5.6 3.15 -8.1 2.95 L-12.5 3.15 -14.75 3.15 -15.0 2.95 -15.4 1.45" fill="#ff9832" fill-rule="evenodd" stroke="none"/>
  </g>
</svg>
