<?xml version="1.0" encoding="UTF-8" standalone="no"?>
<svg xmlns:ffdec="https://www.free-decompiler.com/flash" xmlns:xlink="http://www.w3.org/1999/xlink" ffdec:objectType="shape" height="14.55px" width="20.6px" xmlns="http://www.w3.org/2000/svg">
  <g transform="matrix(1.0, 0.0, 0.0, 1.0, 10.3, 7.3)">
    <path d="M-10.25 -2.65 Q-10.7 -4.1 -8.2 -4.1 L-7.75 -4.1 -3.6 -4.95 Q-2.15 -6.2 2.0 -5.8 6.0 -5.35 7.25 -6.4 L7.45 -6.4 Q8.9 -8.1 9.75 -6.6 10.55 -5.35 10.15 -2.45 9.95 -1.2 8.9 -0.8 L7.45 -0.15 1.6 1.5 Q0.35 2.15 -0.7 4.4 -1.75 6.5 -3.0 7.15 -4.0 6.7 -5.7 7.15 -6.95 7.35 -7.35 7.15 -8.4 6.9 -9.25 5.25 -9.25 0.25 -10.25 -2.65" fill="#ff9832" fill-rule="evenodd" stroke="none"/>
  </g>
</svg>
