<?xml version="1.0" encoding="UTF-8" standalone="no"?>
<svg xmlns:ffdec="https://www.free-decompiler.com/flash" xmlns:xlink="http://www.w3.org/1999/xlink" ffdec:objectType="shape" height="9.6px" width="15.25px" xmlns="http://www.w3.org/2000/svg">
  <g transform="matrix(1.0, 0.0, 0.0, 1.0, 7.6, 4.8)">
    <path d="M-1.75 -1.05 Q-2.4 -2.1 -0.95 -3.55 0.3 -5.0 1.15 -4.8 3.0 -4.4 3.25 -3.15 L3.0 -0.85 3.0 -0.25 3.85 0.6 5.3 0.6 5.3 0.4 5.5 0.4 5.95 0.2 Q7.4 1.0 7.6 1.85 7.8 2.7 7.2 3.3 6.75 2.9 5.5 2.9 L5.3 2.9 Q0.1 2.9 -2.4 4.15 L-4.9 4.75 Q-7.4 5.2 -7.6 2.45 -7.4 0.6 -4.9 0.2 L-2.4 -0.25 -1.75 -1.05" fill="#ff9832" fill-rule="evenodd" stroke="none"/>
  </g>
</svg>
