<?xml version="1.0" encoding="UTF-8" standalone="no"?>
<svg xmlns:ffdec="https://www.free-decompiler.com/flash" xmlns:xlink="http://www.w3.org/1999/xlink" ffdec:objectType="shape" height="23.65px" width="34.75px" xmlns="http://www.w3.org/2000/svg">
  <g transform="matrix(1.0, 0.0, 0.0, 1.0, 17.35, 11.85)">
    <path d="M-13.75 -3.0 Q-10.0 -3.6 -8.95 -5.05 -8.1 -5.9 -5.8 -7.15 -3.75 -8.2 -2.9 -9.25 -2.5 -9.65 -1.45 -9.85 -0.4 -10.05 -0.2 -9.85 0.45 -6.75 3.55 -6.75 6.7 -6.75 8.35 -9.45 8.55 -10.05 14.2 -11.75 18.35 -12.15 17.1 -10.7 15.85 -9.25 13.95 -8.6 12.1 -8.0 11.05 -6.75 L7.3 -4.25 Q3.55 -1.95 2.7 -0.7 3.55 0.55 3.95 4.95 4.4 8.9 5.0 10.15 7.1 12.65 2.5 11.4 1.05 11.2 0.65 9.7 -0.2 7.45 -2.3 8.05 -4.8 8.9 -5.4 7.65 L-6.05 5.35 Q-6.45 4.1 -7.5 3.9 L-9.35 3.25 Q-10.4 2.65 -11.25 3.45 -11.85 4.1 -12.05 5.55 -12.3 7.2 -12.5 7.65 -13.95 10.55 -15.2 9.3 -15.2 8.45 -15.8 6.6 L-16.65 3.9 Q-16.25 3.05 -16.45 2.65 L-17.05 1.2 Q-17.5 0.35 -17.3 -0.5 -16.85 -2.15 -13.75 -3.0" fill="#ff9832" fill-rule="evenodd" stroke="none"/>
  </g>
</svg>
