<?xml version="1.0" encoding="UTF-8" standalone="no"?>
<svg xmlns:ffdec="https://www.free-decompiler.com/flash" xmlns:xlink="http://www.w3.org/1999/xlink" ffdec:objectType="shape" height="132.95px" width="130.75px" xmlns="http://www.w3.org/2000/svg">
  <g transform="matrix(1.0, 0.0, 0.0, 1.0, 65.35, 66.5)">
    <path d="M-47.7 35.7 L-47.5 35.9 -47.25 36.3 Q-47.05 36.5 -46.85 36.5 L-46.9 37.15 -50.65 40.0 -49.85 40.85 Q-48.35 40.25 -47.1 39.45 L-46.05 39.2 -45.25 39.25 -44.0 40.1 -44.0 40.5 -44.2 40.5 -44.45 40.95 Q-44.65 41.15 -44.85 41.15 L-45.3 41.15 -45.5 40.95 -45.85 40.7 -47.35 41.1 Q-48.4 41.95 -49.65 42.5 L-50.1 42.7 -50.5 42.5 -52.55 39.8 -52.55 39.4 -52.3 39.15 -47.9 35.7 -47.7 35.7 M-49.55 33.15 L-49.55 34.15 Q-49.55 35.0 -50.2 35.2 L-51.25 36.25 -52.5 36.65 -53.75 36.85 -54.75 36.4 -55.6 35.35 -56.2 34.1 -56.0 33.1 -55.55 32.25 -54.7 31.6 -54.5 31.4 -53.9 31.2 -53.7 31.4 -51.85 34.6 -51.25 34.15 -51.0 33.55 -51.0 33.15 Q-50.95 32.7 -51.2 32.3 L-51.6 31.65 -52.0 31.25 -52.45 31.05 -52.65 30.85 -52.65 30.65 -52.45 30.65 -52.0 30.2 -51.6 30.2 -51.4 30.45 -50.95 30.65 -50.15 31.9 Q-49.7 32.5 -49.55 33.15 M-34.55 48.95 L-34.55 49.15 -35.8 51.05 Q-34.75 51.65 -33.75 52.35 L-32.5 50.45 -32.05 50.45 Q-31.85 50.65 -31.65 50.65 L-31.25 51.1 -31.25 51.3 -34.45 56.25 -34.85 56.25 -35.65 55.8 -35.65 55.6 -35.85 55.4 -34.6 53.55 Q-35.45 52.9 -36.45 52.3 L-37.75 53.95 -37.95 54.15 -38.35 53.9 -38.55 53.7 -39.0 53.5 -39.2 53.25 -39.2 53.05 -35.75 48.1 -35.55 48.1 -35.35 48.3 -35.0 48.55 -34.55 48.95 M-30.5 57.15 Q-30.5 57.8 -29.85 58.0 L-28.85 58.0 -28.0 57.15 -30.25 56.15 Q-30.3 56.75 -30.5 57.15 M-29.8 52.6 L-29.75 52.4 -28.95 52.4 -28.35 52.6 -27.55 53.0 -26.5 53.9 Q-25.85 54.3 -25.85 54.7 L-25.65 55.95 -26.35 57.45 Q-26.75 58.25 -27.15 58.4 -27.35 59.05 -28.2 59.05 L-29.25 59.25 -30.5 58.85 -31.55 58.15 -31.95 57.1 Q-32.35 56.7 -31.9 56.1 L-31.5 55.05 -31.5 54.85 -31.05 54.4 -27.55 56.15 -27.3 55.5 -27.3 54.9 -28.15 54.05 -29.0 53.65 -30.05 53.65 -30.25 53.4 -30.25 53.2 -30.05 52.8 -30.05 52.6 -29.8 52.6 M-40.2 48.5 L-39.7 47.85 -39.5 47.25 Q-39.1 47.0 -39.5 46.6 L-39.9 46.0 -40.55 45.8 Q-40.75 45.55 -40.95 45.8 L-41.6 46.0 -42.85 47.2 -43.05 47.8 -42.9 48.45 -42.05 49.25 -41.45 49.3 -40.8 49.1 -40.2 48.5 M-40.1 44.3 L-38.9 45.15 -38.05 46.25 -37.85 47.3 -38.05 48.3 -38.95 49.5 -39.95 50.35 -41.0 50.75 -42.25 50.7 -43.5 49.9 -44.35 48.85 -44.7 47.8 -44.3 46.55 Q-44.3 46.15 -43.65 45.5 L-42.6 44.5 -41.35 44.1 -40.1 44.3 M-22.35 55.6 L-22.1 55.8 -22.1 56.0 -23.0 57.85 -22.4 57.9 -21.55 58.1 -20.5 58.75 -20.1 59.35 -19.95 60.2 -20.35 61.0 -20.95 62.9 -21.4 62.9 -22.2 62.45 -22.45 62.45 -22.45 62.25 -21.8 60.6 -21.75 59.75 -21.95 59.35 -22.4 59.15 -22.8 59.15 -23.4 59.1 Q-23.9 60.35 -24.5 61.4 L-24.9 61.4 Q-25.15 61.4 -25.35 61.2 L-25.75 61.2 -25.95 60.95 -25.95 60.75 -23.8 55.35 -23.6 55.15 -23.15 55.15 -22.95 55.35 -22.55 55.6 -22.35 55.6 M-19.5 62.9 L-15.05 55.9 -13.8 55.9 -13.35 56.1 -13.15 56.1 -13.2 56.55 -14.45 58.2 -14.45 58.4 -14.25 58.6 -13.75 64.25 -13.75 64.65 -13.95 64.85 -14.75 64.85 -15.2 64.65 -15.4 64.45 -15.4 64.25 -15.7 60.05 Q-16.8 61.9 -18.05 63.55 L-18.25 63.75 -18.45 63.75 -18.9 63.55 -19.3 63.5 -19.7 63.1 -19.5 62.9 M-11.75 60.1 L-11.15 59.5 -10.1 59.3 Q-9.45 59.1 -8.85 59.3 L-7.8 59.3 -7.4 59.55 -6.95 59.55 Q-6.75 59.75 -6.55 59.75 L-6.6 60.4 Q-6.8 62.9 -7.3 65.4 L-7.5 65.8 -9.75 65.75 -10.8 65.35 -11.65 65.1 -12.05 64.45 -12.2 63.8 -11.8 62.8 -10.95 62.6 -11.8 61.95 Q-12.2 61.35 -12.0 60.9 L-11.75 60.1 M-10.35 61.15 Q-10.55 61.4 -10.35 61.4 L-10.15 61.8 -9.95 62.0 -9.3 62.0 -8.25 62.2 -8.25 60.55 -8.5 60.55 -8.7 60.35 -9.7 60.35 Q-9.95 60.55 -10.15 60.55 L-10.35 60.75 -10.35 61.15 M-9.15 64.5 Q-8.95 64.7 -8.75 64.7 L-8.5 63.05 -10.15 63.05 -10.55 63.65 -10.55 64.1 -10.2 64.5 -9.15 64.5 M-1.15 60.0 L-0.7 60.25 -0.35 60.65 -0.35 61.5 -0.55 61.5 -0.55 61.7 -0.75 61.5 -1.6 61.05 -2.85 61.05 Q-3.05 61.25 -3.25 61.25 L-3.5 61.5 -3.5 62.1 -3.25 62.5 -2.85 62.5 -2.25 62.7 -1.4 62.7 -1.4 63.75 -2.85 63.75 Q-3.05 63.95 -3.25 63.95 L-3.5 64.2 -3.55 64.8 -3.1 65.2 -1.85 65.2 -1.05 64.8 -0.8 64.8 -0.6 65.0 -0.6 65.2 -0.8 65.65 -0.8 65.85 -1.65 66.25 Q-1.85 66.45 -2.3 66.45 L-2.9 66.45 -3.95 66.25 -4.8 65.8 -5.2 65.4 -5.15 64.15 -4.95 63.7 -4.1 63.3 -4.5 63.1 -5.35 62.25 -5.35 61.65 -5.15 60.8 -4.45 60.2 -2.4 59.8 -1.75 60.0 -1.15 60.0 M1.5 60.9 L2.4 60.05 3.85 59.7 5.1 59.9 Q5.95 59.9 6.1 60.55 6.7 60.95 6.7 61.35 L7.15 62.8 6.95 64.05 6.45 65.3 5.45 65.95 4.2 66.35 2.7 66.3 1.7 65.7 1.05 64.65 0.9 63.4 0.9 61.95 1.5 60.9 M2.75 61.75 L2.55 62.35 2.55 63.2 2.95 64.65 Q3.15 64.85 3.35 64.85 L4.2 65.1 4.8 64.9 5.2 64.5 5.5 63.85 5.5 63.05 5.05 61.6 4.45 61.15 3.8 61.15 3.2 61.3 2.75 61.75 M-63.85 13.6 L-63.65 13.6 -58.0 12.4 -57.8 12.4 -57.8 12.65 -57.6 12.85 -57.6 13.25 -57.4 13.65 -57.4 13.9 -57.65 14.1 -59.95 14.5 -59.3 16.8 -57.2 16.35 -57.0 16.35 -57.0 16.6 -56.8 16.8 -56.8 17.2 -56.6 17.45 -56.65 17.9 -56.85 17.85 -56.85 18.05 -62.7 19.25 -62.7 19.05 -62.9 19.05 -62.9 18.8 -63.1 18.4 -63.05 17.55 -62.85 17.55 -60.75 17.15 -61.2 14.65 -63.45 15.3 -63.7 15.1 -63.7 14.85 -63.9 14.45 -63.85 13.6 M-54.8 22.9 Q-54.6 23.3 -55.05 24.15 -55.05 24.75 -55.65 24.95 -56.3 25.4 -56.95 25.55 L-58.4 25.95 -59.65 25.75 -60.45 25.1 Q-61.05 24.45 -61.05 24.05 L-61.5 22.8 -61.05 21.75 -60.4 20.95 Q-59.75 20.75 -59.35 20.35 L-59.15 20.35 Q-58.75 19.9 -58.75 20.35 L-58.5 20.55 -57.1 23.85 -56.7 23.7 -56.3 23.1 -56.05 22.65 -56.45 21.2 -56.85 20.55 -57.25 20.1 -57.25 19.9 -57.05 19.9 -56.85 19.7 -56.65 19.75 -56.45 19.55 -56.25 19.55 -56.25 19.75 -56.0 19.75 -55.6 20.15 -55.4 20.8 -55.05 21.65 -54.8 22.9 M-60.05 22.6 Q-60.45 23.05 -60.05 23.65 L-59.8 24.1 -59.2 24.3 -58.15 24.3 -59.0 22.0 -60.05 22.6 M-58.85 27.4 L-58.6 27.2 -58.2 27.2 -57.35 29.1 -53.2 27.05 -52.8 27.1 -52.8 27.3 -52.4 28.15 -52.4 28.55 -57.4 30.95 -57.85 30.95 -58.05 30.75 -59.45 27.85 -59.45 27.6 -59.25 27.6 Q-59.05 27.6 -58.85 27.4 M-53.95 33.1 Q-54.75 33.5 -54.75 33.9 -55.2 34.35 -54.55 34.75 L-54.35 35.15 -53.75 35.35 -53.3 35.35 -52.7 35.2 -53.95 33.1" fill="#99cccc" fill-rule="evenodd" stroke="none"/>
    <path d="M-50.6 -43.3 L-47.0 -47.0 -46.6 -47.0 -46.0 -46.35 -46.0 -46.15 -46.2 -46.15 -48.7 -43.5 -47.1 -42.0 -46.2 -43.05 -45.2 -43.85 -44.15 -44.25 -43.1 -44.0 -42.25 -43.4 -41.7 -42.55 -41.5 -41.5 -41.9 -40.5 -42.75 -39.25 -44.45 -37.55 -44.85 -37.4 -45.3 -37.6 -50.45 -42.85 -50.6 -43.3 M-53.85 -35.4 L-53.4 -36.05 -53.0 -36.45 -47.85 -33.65 -47.6 -33.45 -48.05 -32.6 -48.25 -32.4 -48.45 -32.45 -51.8 -34.1 -52.0 -34.35 -52.85 -34.8 -52.6 -34.6 -52.4 -34.15 -51.8 -33.5 -49.75 -30.8 -49.55 -30.8 -49.55 -30.6 Q-49.55 -30.35 -49.75 -30.35 L-49.95 -29.95 -50.4 -29.55 -50.6 -29.55 -53.9 -30.4 -54.35 -30.65 -54.75 -30.65 Q-54.95 -30.65 -55.15 -30.85 L-55.35 -31.05 -55.35 -30.85 Q-55.15 -30.65 -54.95 -30.65 L-54.75 -30.4 Q-54.55 -30.2 -54.35 -30.2 L-54.1 -29.8 -51.65 -27.9 -51.7 -27.45 -52.1 -26.65 -52.5 -26.7 -56.85 -30.25 -57.05 -30.45 -56.85 -31.1 -56.35 -31.7 -56.15 -32.15 -55.75 -32.3 -55.55 -32.3 -54.9 -32.1 -53.05 -31.65 Q-52.9 -31.45 -52.65 -31.45 L-52.25 -31.4 -51.4 -31.0 -51.65 -31.4 -52.0 -31.6 -52.2 -32.05 -53.85 -33.95 -54.05 -34.4 -54.3 -34.6 -53.85 -35.4 M-18.75 -60.35 L-18.55 -60.15 -18.55 -59.55 -19.15 -59.55 -19.6 -59.75 Q-19.8 -59.55 -20.2 -59.55 L-21.05 -58.7 -20.9 -57.25 -20.45 -56.4 -20.05 -56.0 Q-19.85 -55.8 -19.65 -55.8 L-19.0 -55.8 -18.4 -56.2 -18.15 -56.65 -17.75 -57.05 -17.55 -57.0 -17.55 -56.8 -17.35 -56.6 -17.35 -56.35 -17.15 -56.15 -17.15 -55.55 Q-17.35 -55.1 -17.75 -54.95 -17.95 -54.75 -18.15 -54.75 L-18.8 -54.55 -19.85 -54.35 -20.9 -54.55 -21.7 -55.45 -22.35 -56.7 -22.7 -58.15 -22.5 -59.4 -21.65 -60.2 -20.2 -61.0 -19.15 -61.0 -18.95 -60.8 -18.75 -60.8 -18.75 -60.35 M-12.9 -60.9 L-13.35 -61.1 -14.15 -61.15 Q-14.35 -60.95 -14.6 -60.95 L-15.0 -60.55 -15.2 -59.9 -14.8 -58.25 -14.4 -57.6 -14.0 -57.4 -13.15 -57.35 Q-12.95 -57.35 -12.75 -57.55 L-12.3 -58.0 -12.1 -58.8 -12.5 -60.25 -12.9 -60.9 M-12.85 -62.55 L-11.8 -62.15 -11.05 -61.3 -10.6 -60.05 -10.4 -58.6 -10.9 -57.55 Q-11.3 -56.75 -11.7 -56.55 L-12.95 -56.1 -14.4 -55.95 -15.45 -56.35 -16.3 -57.2 -16.65 -58.45 -16.85 -59.9 -16.45 -61.15 -15.55 -62.0 -14.3 -62.6 -12.85 -62.55 M-30.25 -56.8 Q-30.05 -56.8 -29.85 -57.0 L-29.2 -57.2 -29.0 -56.95 -27.55 -54.25 -27.4 -53.6 -27.35 -54.85 -26.65 -58.2 -26.05 -58.8 -25.6 -58.8 -25.4 -59.0 -25.2 -58.95 -25.2 -58.75 -22.6 -53.55 -22.6 -53.35 -22.8 -53.35 -23.2 -52.95 Q-23.4 -52.7 -23.65 -52.7 L-24.25 -52.7 -25.45 -55.7 -25.65 -56.3 -25.85 -55.7 -25.85 -55.05 -26.55 -51.75 -26.55 -51.5 -26.75 -51.3 Q-26.95 -51.1 -27.15 -51.1 L-27.4 -50.9 -27.8 -50.9 -28.0 -51.1 -30.45 -56.35 -30.45 -56.55 -30.25 -56.8 M-32.35 -54.5 L-31.55 -53.85 -30.7 -52.8 -30.1 -51.55 -30.15 -50.3 -30.35 -49.3 Q-30.75 -48.85 -31.2 -48.65 L-32.0 -48.25 -32.45 -48.25 -33.05 -48.5 -31.65 -45.95 -31.65 -45.75 -32.05 -45.3 -32.5 -45.1 -33.1 -45.15 -37.15 -52.1 -37.4 -52.3 -37.15 -52.5 -36.95 -52.5 -36.55 -52.85 -36.15 -52.85 -35.7 -52.25 -35.3 -53.5 -34.4 -54.35 -33.35 -54.75 -32.35 -54.5 M-34.65 -52.25 L-34.65 -51.85 -34.9 -51.4 -33.9 -49.75 -32.85 -49.5 -32.2 -49.5 -31.8 -49.9 -31.75 -51.15 -32.6 -52.4 -33.0 -52.85 -33.65 -53.1 -34.45 -52.65 -34.65 -52.25 M-39.5 -48.55 L-40.15 -48.55 -40.75 -48.2 -41.15 -47.75 -41.15 -47.15 -41.0 -46.5 -40.6 -45.65 -39.35 -44.8 -38.95 -44.8 -38.3 -45.2 -37.9 -45.65 -37.7 -46.25 -37.85 -46.9 -38.45 -47.5 -38.9 -48.15 -39.5 -48.55 M-38.25 -49.6 L-37.2 -48.75 -36.4 -47.45 -36.25 -46.4 -36.45 -45.15 -38.5 -43.35 -39.75 -43.15 -40.8 -43.6 -41.85 -44.65 -42.7 -45.7 -42.85 -46.95 -42.4 -48.2 -41.6 -49.2 -40.35 -49.8 -39.3 -50.0 -38.25 -49.6 M-43.55 -42.15 L-44.4 -42.55 Q-44.6 -42.4 -44.8 -42.4 L-45.45 -42.0 -46.25 -41.15 -44.4 -39.45 -43.75 -40.25 -43.35 -40.7 -43.15 -41.3 -43.15 -41.75 -43.55 -42.15 M-56.7 -23.8 L-55.9 -23.75 -55.05 -23.15 -54.65 -22.3 -54.45 -21.25 -54.9 -20.0 -55.5 -18.75 -55.5 -18.35 -55.95 -17.95 Q-56.15 -17.95 -56.35 -18.2 L-61.55 -20.3 -61.5 -21.15 -60.9 -21.8 -59.2 -21.1 -58.2 -23.0 -57.55 -23.6 -56.7 -23.8 M-59.15 -26.5 L-58.95 -26.95 -58.75 -27.15 -58.75 -27.35 -58.55 -27.55 -53.15 -25.2 -52.95 -25.2 -52.95 -24.8 -53.4 -23.95 -53.4 -23.75 -53.6 -23.75 -59.15 -25.9 -59.15 -26.5 M-62.6 -17.2 L-62.4 -17.4 -62.4 -17.6 -62.2 -17.8 -62.0 -17.8 -56.4 -16.3 -56.2 -16.05 -56.4 -15.9 -56.4 -15.05 -56.6 -14.85 -56.8 -14.85 -59.1 -15.25 Q-59.3 -14.05 -59.75 -13.0 L-57.5 -12.55 -57.3 -12.35 -57.3 -11.95 -57.5 -11.55 -57.5 -11.3 -57.7 -10.9 -57.9 -10.9 -63.55 -12.4 -63.75 -12.4 -63.7 -12.85 -63.5 -13.25 -63.5 -13.65 -63.3 -13.85 -63.05 -13.85 -61.0 -13.45 Q-60.55 -14.5 -60.35 -15.75 L-62.45 -16.15 -62.65 -16.35 -62.6 -17.2 M-62.3 -10.1 L-59.8 -9.65 -58.75 -9.05 -58.15 -8.2 -58.15 -6.55 -58.4 -6.1 -58.8 -5.7 -59.2 -5.5 -56.55 -5.05 -56.35 -5.0 -56.35 -3.55 -56.55 -3.4 -64.7 -4.55 -64.9 -4.55 -64.85 -5.8 -64.65 -6.0 -63.8 -5.75 -64.65 -7.05 -64.65 -8.1 -64.15 -9.15 -63.55 -9.7 -62.3 -10.1 M-56.35 -19.85 L-55.9 -20.65 Q-55.45 -21.05 -55.9 -21.45 L-56.3 -22.15 -57.15 -22.15 Q-57.35 -21.95 -57.55 -21.95 L-57.75 -21.3 -57.95 -20.9 -57.95 -20.5 -56.35 -19.85 M-60.05 -7.8 L-61.3 -8.25 -62.55 -8.25 -63.15 -7.85 -63.4 -7.4 -63.4 -7.0 -63.15 -6.8 -62.95 -6.35 -62.55 -5.95 -60.65 -5.75 -59.85 -6.1 -59.65 -6.75 -59.65 -7.35 -60.05 -7.8 M-59.5 -0.7 L-58.9 0.15 -58.7 1.15 -59.15 2.85 -59.8 3.25 -60.6 3.4 -61.45 3.2 -62.05 2.6 -62.45 1.55 -62.65 0.3 -62.65 -0.35 -63.5 -0.35 Q-63.7 -0.1 -63.9 -0.1 L-64.1 0.25 -64.1 0.65 -63.7 2.15 Q-63.5 2.35 -63.55 2.6 L-63.55 3.0 -64.8 2.95 -65.15 2.1 -65.15 1.3 -65.35 0.65 -65.15 -0.6 -64.7 -1.4 -64.05 -1.85 -63.0 -2.0 -58.85 -1.95 -58.9 -0.7 -59.5 -0.7 M-60.55 -0.35 L-61.6 -0.35 -61.6 0.9 -61.4 1.35 -61.0 1.75 -60.55 1.75 -60.15 1.6 -59.95 0.95 -60.15 0.35 -60.55 -0.35 M-65.0 5.65 Q-64.8 5.65 -64.55 5.45 L-60.2 5.15 -60.2 4.3 -60.0 4.1 -56.85 3.9 -56.65 4.1 -56.65 5.15 -56.85 5.35 -58.75 5.55 -58.35 10.15 -56.3 9.95 -56.1 10.2 -56.15 11.2 -56.35 11.2 -59.25 11.6 -59.45 11.6 -59.65 11.4 -59.65 10.95 -60.3 10.55 -62.35 10.1 -64.4 10.05 -64.6 9.8 -64.6 9.6 -65.0 6.05 -65.0 5.65 M-61.9 8.6 L-60.85 8.85 -59.6 9.3 -60.05 6.8 -63.6 7.15 Q-63.35 8.0 -63.35 8.6 L-61.9 8.6" fill="#99cccc" fill-rule="evenodd" stroke="none"/>
    <path d="M27.5 -58.1 L27.9 -57.7 28.1 -57.65 28.1 -57.45 27.0 -55.6 29.1 -54.5 30.15 -56.4 30.35 -56.6 30.55 -56.4 31.0 -56.2 31.4 -56.2 31.6 -55.95 31.6 -55.75 29.05 -50.35 28.45 -50.35 28.0 -50.55 27.6 -51.05 27.4 -51.05 27.4 -51.25 28.45 -53.25 26.4 -54.35 25.3 -52.3 25.3 -52.05 25.1 -52.05 24.9 -52.3 24.45 -52.3 24.05 -52.55 23.85 -52.75 23.85 -52.95 26.45 -58.3 27.05 -58.3 27.5 -58.1 M34.5 -53.85 L33.65 -49.7 36.75 -52.35 36.95 -52.55 37.15 -52.55 37.6 -52.35 38.2 -51.7 38.2 -51.5 38.0 -51.3 31.5 -46.2 31.1 -46.2 30.05 -46.8 29.85 -47.0 29.85 -47.25 30.05 -47.25 31.7 -48.5 31.7 -48.9 32.85 -54.45 33.05 -54.9 33.45 -54.9 34.3 -54.45 34.5 -54.25 34.5 -53.85 M16.7 -63.4 L16.7 -63.0 16.5 -62.85 12.95 -63.45 12.55 -61.45 15.2 -60.75 16.05 -60.15 16.45 -59.3 16.45 -58.25 16.0 -57.2 15.15 -56.6 14.1 -56.15 12.65 -56.2 10.35 -56.65 9.95 -56.85 9.95 -57.25 11.3 -64.55 11.5 -64.95 11.9 -64.95 16.7 -64.05 16.9 -64.05 16.9 -63.85 16.7 -63.4 M5.95 -66.5 L6.95 -66.5 6.95 -66.25 5.9 -64.4 5.9 -63.15 5.65 -62.95 5.45 -62.95 5.05 -63.0 4.4 -63.0 4.2 -63.2 4.2 -64.05 4.9 -65.3 5.7 -66.25 5.95 -66.5 M7.35 -65.0 L8.45 -66.05 8.45 -66.25 9.45 -66.2 9.45 -66.0 8.6 -64.4 8.4 -63.35 8.4 -62.95 8.15 -62.75 6.9 -62.75 6.9 -64.2 7.35 -65.0 M12.9 -57.4 L13.55 -57.4 14.15 -57.65 14.6 -58.45 Q15.0 -58.9 14.6 -58.9 L14.35 -59.3 13.95 -59.7 12.3 -60.2 11.85 -57.7 12.9 -57.4 M21.45 -59.2 Q20.8 -59.4 20.6 -59.2 L20.2 -59.05 19.8 -58.6 19.35 -57.8 19.1 -57.15 19.1 -56.35 19.95 -55.5 20.75 -55.45 21.2 -55.65 21.6 -56.05 22.3 -57.75 22.3 -58.35 21.45 -59.2 M23.75 -59.0 L23.95 -57.75 23.7 -56.5 23.05 -55.25 22.25 -54.4 21.0 -54.0 19.5 -54.25 18.25 -54.85 17.65 -55.7 17.45 -56.95 17.7 -58.2 18.3 -59.45 19.15 -60.3 20.4 -60.7 21.85 -60.45 23.1 -59.8 23.75 -59.0 M42.1 -48.55 L42.55 -47.7 42.35 -47.5 42.35 -47.3 41.7 -46.65 41.5 -46.65 41.5 -46.85 41.1 -47.7 40.65 -48.1 39.6 -48.35 Q38.8 -47.95 38.6 -47.35 L37.95 -46.7 37.9 -45.45 38.3 -45.05 38.95 -44.85 39.35 -44.6 40.0 -44.6 40.0 -44.35 39.35 -43.75 39.35 -43.55 39.15 -43.6 39.15 -43.4 38.75 -43.4 37.7 -43.8 36.45 -45.05 36.3 -46.1 36.3 -47.15 37.1 -48.4 38.15 -49.4 39.45 -49.8 40.5 -49.8 41.5 -49.15 42.1 -48.55 M42.7 -45.4 L43.75 -45.75 43.85 -45.75 44.0 -45.8 44.85 -45.6 45.05 -45.6 45.1 -45.55 45.2 -45.55 46.25 -44.95 46.9 -44.1 47.2 -43.75 47.5 -42.7 47.5 -42.65 47.5 -42.6 47.45 -42.45 47.15 -41.5 46.45 -40.45 45.95 -40.05 45.95 -40.0 45.9 -40.0 45.85 -39.95 45.35 -39.55 44.25 -39.1 44.15 -39.1 44.1 -39.1 42.95 -39.25 41.7 -40.05 40.8 -41.1 40.8 -41.2 40.75 -41.25 40.55 -42.15 40.65 -42.45 40.8 -43.55 Q41.25 -44.35 41.65 -44.6 L42.7 -45.4 M45.9 -42.7 L45.4 -43.85 Q44.95 -44.3 44.65 -44.15 L44.25 -44.2 43.7 -43.95 42.95 -43.35 42.45 -42.85 42.15 -42.15 42.6 -41.05 43.3 -40.65 43.8 -40.7 44.3 -40.85 45.65 -42.15 45.9 -42.7 M45.1 -36.85 L44.7 -37.25 44.7 -37.45 44.9 -37.45 49.5 -40.3 49.95 -40.5 50.35 -40.3 50.95 -39.65 51.2 -39.2 51.2 -38.6 49.65 -36.35 49.45 -35.95 49.25 -35.75 49.05 -35.3 48.65 -35.1 49.05 -35.1 50.3 -35.75 52.15 -36.3 52.6 -36.5 53.2 -36.5 53.65 -36.1 54.05 -35.5 54.25 -35.05 54.05 -34.65 50.25 -30.75 49.85 -30.75 49.2 -31.35 49.2 -31.55 49.0 -31.8 51.5 -34.0 51.75 -34.45 51.95 -34.65 52.4 -34.85 52.6 -35.05 51.95 -35.05 51.15 -34.65 47.95 -33.45 47.75 -33.45 47.55 -33.65 47.1 -33.85 46.95 -34.3 46.95 -34.7 48.85 -37.6 49.5 -38.25 49.7 -38.65 49.95 -38.85 49.7 -38.85 49.5 -38.65 49.1 -38.45 48.4 -37.8 45.7 -36.2 45.5 -36.2 45.3 -36.4 45.1 -36.85 M55.05 -32.5 L55.05 -32.7 56.9 -32.95 57.95 -33.35 58.15 -33.5 58.35 -33.5 58.6 -33.3 59.0 -33.1 59.0 -32.65 59.2 -32.45 58.8 -32.05 57.95 -31.7 57.55 -31.7 Q57.35 -31.45 57.1 -31.7 L55.25 -31.7 55.25 -31.9 55.05 -32.1 55.05 -32.3 54.85 -32.5 55.05 -32.5 M56.3 -30.45 L56.5 -30.45 58.35 -30.6 59.2 -31.2 59.85 -31.2 60.25 -30.8 60.45 -30.4 60.45 -30.15 60.0 -29.75 59.15 -29.35 56.65 -29.4 56.65 -29.6 56.45 -29.6 56.45 -29.8 56.3 -30.2 56.3 -30.45 M-3.3 -63.9 L-1.6 -63.85 -1.4 -63.45 -0.4 -58.05 -0.6 -57.85 Q-0.6 -57.6 -1.25 -57.6 L-1.85 -57.6 -1.85 -57.85 -2.5 -61.0 -2.7 -61.4 -2.65 -62.65 -2.85 -62.45 -2.85 -61.85 -3.1 -61.4 -3.1 -61.0 -3.95 -57.9 -3.95 -57.65 -4.2 -57.45 -5.45 -57.45 -5.6 -57.65 -6.85 -60.85 -6.85 -61.25 -7.25 -62.1 -7.55 -57.5 -7.75 -57.3 -9.0 -57.3 -8.7 -63.35 -7.25 -63.75 -6.8 -63.55 -6.6 -63.55 -6.4 -63.35 -5.0 -59.95 -5.0 -59.55 -4.8 -59.35 -4.8 -59.75 -4.6 -60.15 -4.6 -61.0 -3.9 -62.9 -3.9 -63.3 -3.7 -63.7 -3.3 -63.9 M61.75 -22.25 L59.05 -21.2 59.7 -19.75 60.1 -19.55 61.35 -19.55 61.95 -19.9 62.15 -20.55 62.15 -20.95 61.75 -22.25 M63.65 -20.75 L63.65 -19.9 63.4 -19.1 62.95 -18.45 62.1 -18.05 60.9 -17.7 59.65 -17.9 58.8 -18.7 58.0 -19.95 57.8 -20.65 55.3 -19.8 55.1 -19.8 54.9 -20.0 54.7 -20.45 54.7 -20.85 54.45 -21.05 54.7 -21.25 61.8 -24.15 62.2 -24.1 62.65 -23.65 63.65 -20.75 M59.85 -15.8 L61.3 -15.8 62.35 -15.55 63.1 -14.7 63.75 -13.65 63.75 -12.4 63.55 -11.4 62.65 -10.55 61.6 -10.2 60.8 -10.2 60.55 -10.6 59.8 -13.95 59.15 -13.7 58.75 -13.3 58.55 -12.9 58.55 -12.05 58.75 -11.45 59.3 -10.4 59.3 -9.95 58.9 -9.95 58.7 -9.75 58.5 -9.75 58.3 -9.95 58.05 -9.95 57.85 -10.6 57.5 -11.25 57.3 -11.9 57.3 -13.35 57.5 -14.4 58.4 -15.2 59.85 -15.8 M61.45 -14.35 L60.85 -14.35 61.45 -11.85 Q62.5 -12.2 62.5 -12.4 62.7 -12.65 62.5 -13.25 L62.3 -13.9 61.45 -14.35 M64.3 -8.65 L64.5 -8.25 65.1 -3.7 64.85 -3.45 64.4 -3.25 59.0 -2.7 58.8 -2.7 58.6 -2.9 58.65 -4.15 58.85 -4.15 63.45 -4.7 63.2 -7.0 58.65 -6.45 58.45 -6.45 58.45 -6.65 58.25 -6.85 58.3 -8.1 58.5 -8.1 63.9 -8.65 64.3 -8.65" fill="#99cccc" fill-rule="evenodd" stroke="none"/>
    <path d="M54.4 17.05 L54.6 16.65 54.8 16.65 62.5 19.2 62.7 19.2 62.65 19.65 62.45 20.05 62.45 20.25 62.25 20.45 62.25 20.7 62.05 20.45 61.4 20.25 61.85 21.5 61.85 22.75 61.15 23.55 60.3 24.15 59.05 24.15 58.05 23.95 56.55 23.3 55.8 22.45 55.35 21.4 55.6 20.35 56.0 19.55 56.9 19.1 54.4 18.3 54.15 18.1 54.15 17.25 54.4 17.05 M60.0 1.9 L60.2 2.7 60.2 3.35 60.4 3.75 60.35 4.2 59.3 4.2 59.35 3.95 59.15 3.75 58.95 3.35 58.95 2.7 58.75 1.9 58.95 0.45 Q59.0 0.0 59.65 -0.4 60.05 -1.0 60.45 -1.0 L61.9 -1.4 63.4 -1.2 64.4 -0.55 65.05 0.3 65.4 1.6 65.2 2.75 64.6 3.6 63.7 4.25 62.45 4.45 62.25 4.45 61.8 4.25 61.65 4.0 61.7 0.3 60.85 0.45 60.4 0.65 60.0 1.9 M63.35 0.5 L62.75 0.3 62.7 2.75 63.75 2.55 Q64.15 2.35 64.15 1.55 L64.15 1.1 63.75 0.7 Q63.55 0.7 63.35 0.5 M64.95 5.7 L64.7 10.5 64.25 10.5 Q64.05 10.7 63.85 10.5 L63.25 10.5 63.25 8.8 58.65 8.35 58.45 8.15 58.5 7.1 58.9 6.7 63.5 7.15 63.5 5.7 63.7 5.5 64.75 5.5 64.95 5.7 M64.25 11.5 L64.2 12.35 64.0 12.75 64.0 13.0 63.8 13.2 63.6 13.2 59.45 13.75 63.15 15.9 63.35 15.9 63.35 17.15 63.15 17.35 62.7 17.35 55.45 13.3 55.25 12.9 55.25 12.05 55.45 11.85 55.5 11.4 55.95 11.4 57.75 12.7 57.75 12.5 57.95 12.5 63.65 11.5 64.25 11.5 M60.35 22.3 L60.6 21.65 60.6 21.05 60.15 20.2 58.3 19.6 57.45 20.0 57.05 20.6 57.05 21.0 57.25 21.6 57.85 21.9 58.5 22.3 59.1 22.5 59.75 22.5 60.35 22.3 M59.05 26.9 L59.25 27.9 59.0 29.4 58.2 30.65 57.1 31.2 56.05 31.2 54.8 30.8 53.6 30.15 52.75 29.05 52.55 27.8 53.05 26.35 53.85 25.35 54.7 24.75 55.95 24.55 57.2 24.95 58.45 25.85 Q59.05 26.45 59.05 26.9 M55.1 26.2 L54.25 27.05 54.0 27.65 54.25 28.3 54.65 28.9 55.5 29.35 56.1 29.55 56.75 29.55 57.35 29.4 57.75 28.75 58.0 28.15 57.75 27.5 57.35 27.1 56.55 26.6 55.1 26.2 M55.15 35.8 L54.95 36.0 54.15 36.0 52.05 35.3 51.65 35.3 51.2 35.1 50.8 35.1 51.0 35.5 51.45 35.75 51.65 36.15 52.9 37.8 53.3 38.0 53.25 38.85 53.05 39.05 52.6 39.9 52.2 40.1 51.8 40.1 46.85 37.55 46.85 37.35 47.25 36.5 47.45 36.3 47.7 36.3 50.6 37.8 50.8 38.0 51.2 38.0 51.65 38.25 52.0 38.65 51.85 38.25 51.45 38.0 51.2 37.6 51.0 37.4 48.7 34.65 48.75 34.2 49.0 33.8 49.4 33.4 49.6 33.4 52.95 34.25 53.35 34.25 Q53.5 34.55 53.7 34.55 L54.15 34.55 53.75 34.1 53.35 33.85 53.15 33.65 50.65 31.8 50.65 31.15 50.85 30.95 51.1 30.55 51.3 30.3 51.55 30.55 55.85 33.9 56.05 34.3 56.0 34.75 55.4 35.35 55.15 35.8" fill="#99cccc" fill-rule="evenodd" stroke="none"/>
  </g>
</svg>
